<svg width="632" height="540" viewBox="0 0 632 540" fill="none" xmlns="http://www.w3.org/2000/svg">
<g clip-path="url(#clip0_102_278)">
<path d="M559.55 430.117H523.404L523.446 430.387H559.592L559.55 430.117Z" fill="#EBEBEB"/>
<path d="M430.49 433.049H421.006L421.049 433.319H430.533L430.49 433.049Z" fill="#EBEBEB"/>
<path d="M520.728 420.114H499.785L499.827 420.383H520.771L520.728 420.114Z" fill="#EBEBEB"/>
<path d="M171.635 421.925H124.499L124.541 422.194H171.677L171.635 421.925Z" fill="#EBEBEB"/>
<path d="M188.267 421.925H181.359L181.402 422.194H188.31L188.267 421.925Z" fill="#EBEBEB"/>
<path d="M313.687 426.474H211.448L211.491 426.743H313.73L313.687 426.474Z" fill="#EBEBEB"/>
<path d="M318.364 364.697H107.62C105.968 364.697 104.28 364.049 102.928 362.895C101.577 361.74 100.672 360.175 100.414 358.542L54.0731 65.9591C53.8305 64.3361 54.2476 62.7843 55.2337 61.6417C56.2199 60.499 57.6952 59.858 59.3385 59.858H270.082C270.9 59.858 271.736 60.0172 272.541 60.3266C273.346 60.6359 274.105 61.0892 274.774 61.6608C275.443 62.2323 276.01 62.9109 276.441 63.6576C276.873 64.4044 277.16 65.2047 277.288 66.013L323.621 358.542C323.749 359.351 323.714 360.151 323.519 360.898C323.324 361.645 322.973 362.323 322.485 362.895C321.997 363.466 321.381 363.92 320.674 364.229C319.967 364.538 319.182 364.697 318.364 364.697V364.697ZM59.3727 60.0736C57.7936 60.0765 56.378 60.6975 55.4358 61.8006C54.4937 62.9037 54.1018 64.3991 54.346 65.9591L100.687 358.542C100.937 360.102 101.802 361.598 103.094 362.701C104.385 363.804 105.998 364.425 107.578 364.428H318.321C319.9 364.425 321.316 363.804 322.258 362.701C323.2 361.598 323.592 360.102 323.348 358.542L277.007 65.9591C276.757 64.3991 275.892 62.9037 274.6 61.8006C273.308 60.6975 271.696 60.0765 270.116 60.0736H59.3727Z" fill="#EBEBEB"/>
<path d="M554.427 364.697H343.684C342.031 364.697 340.343 364.049 338.991 362.895C337.64 361.74 336.735 360.175 336.477 358.542L290.136 65.9591C289.894 64.3361 290.311 62.7843 291.297 61.6417C292.283 60.499 293.758 59.858 295.402 59.858H506.145C507.798 59.858 509.486 60.5065 510.837 61.6608C512.189 62.8151 513.093 64.3806 513.352 66.013L559.684 358.542C559.942 360.175 559.534 361.74 558.548 362.895C557.562 364.049 556.08 364.697 554.427 364.697V364.697ZM295.436 60.0736C293.857 60.0765 292.441 60.6975 291.499 61.8006C290.557 62.9037 290.165 64.3991 290.409 65.9591L336.75 358.542C337 360.102 337.865 361.598 339.157 362.701C340.449 363.804 342.061 364.425 343.641 364.428H554.384C555.963 364.425 557.379 363.804 558.321 362.701C559.263 361.598 559.655 360.102 559.411 358.542L513.07 65.9591C512.82 64.3991 511.955 62.9037 510.663 61.8006C509.372 60.6975 507.759 60.0765 506.179 60.0736H295.436Z" fill="#EBEBEB"/>
<path d="M611.48 412.773H65.7958L65.8385 413.043H611.523L611.48 412.773Z" fill="#EBEBEB"/>
<path d="M184.479 339.851C181.913 329.438 170.536 325.547 157.952 326.646C145.368 327.746 136.369 333.426 138.913 343.839L184.479 339.851Z" fill="#F0F0F0"/>
<path d="M156.784 321.893C162.618 321.375 163.724 316.438 162.285 310.596C160.847 304.753 157.367 300.215 151.554 300.722C145.741 301.229 144.615 306.176 146.053 312.019C147.491 317.861 150.949 322.399 156.784 321.893Z" fill="#F0F0F0"/>
<path d="M390.294 118.066C390.58 119.222 390.518 120.382 390.115 121.4C389.712 122.417 388.986 123.247 388.03 123.783C387.073 124.319 385.928 124.538 384.741 124.413C383.553 124.287 382.376 123.822 381.358 123.076C380.34 122.331 379.527 121.338 379.022 120.224C378.516 119.111 378.342 117.925 378.52 116.819C378.698 115.713 379.221 114.735 380.022 114.009C380.824 113.283 381.868 112.842 383.022 112.741C384.568 112.607 386.202 113.092 387.565 114.09C388.928 115.089 389.91 116.519 390.294 118.066Z" fill="#F5F5F5"/>
<path d="M422.657 115.199C422.941 116.352 422.877 117.509 422.473 118.524C422.069 119.539 421.344 120.365 420.389 120.899C419.433 121.433 418.291 121.65 417.106 121.523C415.921 121.397 414.746 120.931 413.731 120.187C412.716 119.442 411.905 118.451 411.402 117.34C410.898 116.228 410.725 115.046 410.903 113.942C411.081 112.838 411.603 111.863 412.403 111.138C413.203 110.414 414.244 109.974 415.396 109.874C416.941 109.743 418.572 110.229 419.933 111.227C421.294 112.225 422.273 113.654 422.657 115.199V115.199Z" fill="#F5F5F5"/>
<path d="M455.036 112.364C455.323 113.52 455.261 114.68 454.858 115.697C454.455 116.715 453.729 117.544 452.772 118.081C451.816 118.617 450.671 118.836 449.484 118.71C448.296 118.585 447.119 118.12 446.101 117.374C445.082 116.628 444.269 115.636 443.764 114.522C443.259 113.408 443.085 112.223 443.263 111.117C443.441 110.01 443.964 109.032 444.765 108.307C445.566 107.581 446.61 107.14 447.765 107.039C449.31 106.905 450.944 107.39 452.308 108.388C453.671 109.387 454.652 110.817 455.036 112.364V112.364Z" fill="#F5F5F5"/>
<path d="M398.446 151.073C398.733 152.228 398.67 153.388 398.267 154.406C397.864 155.424 397.139 156.253 396.182 156.789C395.226 157.326 394.081 157.545 392.893 157.419C391.706 157.293 390.528 156.828 389.51 156.082C388.492 155.337 387.679 154.344 387.174 153.231C386.669 152.117 386.494 150.932 386.673 149.825C386.851 148.719 387.374 147.741 388.175 147.015C388.976 146.289 390.02 145.848 391.174 145.748C392.72 145.613 394.354 146.098 395.718 147.097C397.081 148.095 398.062 149.525 398.446 151.073Z" fill="#F5F5F5"/>
<path d="M430.816 148.248C431.1 149.402 431.036 150.559 430.633 151.573C430.229 152.588 429.503 153.414 428.548 153.948C427.593 154.482 426.45 154.699 425.265 154.573C424.08 154.446 422.906 153.981 421.89 153.236C420.875 152.491 420.064 151.501 419.561 150.389C419.058 149.278 418.884 148.095 419.062 146.991C419.241 145.887 419.763 144.912 420.562 144.188C421.362 143.464 422.404 143.024 423.556 142.923C424.32 142.857 425.115 142.942 425.894 143.173C426.672 143.405 427.42 143.779 428.095 144.273C428.769 144.768 429.356 145.373 429.823 146.055C430.29 146.737 430.628 147.483 430.816 148.248Z" fill="#F5F5F5"/>
<path d="M463.194 145.403C463.48 146.558 463.418 147.718 463.015 148.736C462.612 149.754 461.887 150.583 460.93 151.119C459.973 151.656 458.829 151.875 457.641 151.749C456.454 151.623 455.276 151.158 454.258 150.413C453.24 149.667 452.427 148.675 451.922 147.561C451.417 146.447 451.242 145.262 451.42 144.155C451.599 143.049 452.121 142.071 452.923 141.345C453.724 140.619 454.768 140.178 455.922 140.078C457.468 139.943 459.102 140.428 460.465 141.427C461.829 142.425 462.81 143.855 463.194 145.403V145.403Z" fill="#F5F5F5"/>
<path d="M406.605 184.122C406.889 185.275 406.826 186.432 406.422 187.447C406.018 188.461 405.293 189.288 404.337 189.822C403.382 190.356 402.239 190.573 401.054 190.446C399.869 190.319 398.695 189.854 397.679 189.11C396.664 188.365 395.854 187.374 395.35 186.263C394.847 185.151 394.673 183.969 394.852 182.865C395.03 181.761 395.552 180.785 396.352 180.061C397.151 179.337 398.193 178.897 399.345 178.797C400.11 178.729 400.905 178.813 401.684 179.044C402.463 179.275 403.212 179.649 403.886 180.143C404.561 180.638 405.148 181.244 405.615 181.927C406.082 182.61 406.418 183.356 406.605 184.122V184.122Z" fill="#F5F5F5"/>
<path d="M438.983 181.276C439.27 182.432 439.208 183.592 438.805 184.61C438.402 185.627 437.676 186.457 436.719 186.993C435.763 187.529 434.618 187.748 433.43 187.623C432.243 187.497 431.065 187.032 430.047 186.286C429.029 185.541 428.216 184.548 427.711 183.434C427.206 182.32 427.031 181.135 427.21 180.029C427.388 178.923 427.911 177.945 428.712 177.219C429.513 176.493 430.557 176.052 431.712 175.951C433.257 175.817 434.891 176.302 436.255 177.3C437.618 178.299 438.599 179.729 438.983 181.276Z" fill="#F5F5F5"/>
<path d="M471.35 178.431C471.636 179.586 471.574 180.746 471.171 181.764C470.768 182.781 470.043 183.611 469.086 184.147C468.129 184.684 466.985 184.903 465.797 184.777C464.61 184.651 463.432 184.186 462.414 183.44C461.396 182.695 460.583 181.702 460.078 180.589C459.573 179.475 459.398 178.29 459.576 177.183C459.755 176.077 460.277 175.099 461.079 174.373C461.88 173.647 462.924 173.206 464.078 173.106C465.624 172.971 467.258 173.456 468.621 174.455C469.985 175.453 470.966 176.883 471.35 178.431V178.431Z" fill="#F5F5F5"/>
<path d="M464.56 180.349L398.057 186.17L446.478 114.423L386.08 119.716C385.912 119.732 385.736 119.714 385.564 119.664C385.392 119.613 385.227 119.531 385.079 119.421C384.93 119.312 384.801 119.177 384.7 119.026C384.598 118.875 384.525 118.71 384.486 118.541V118.541C384.402 118.202 384.456 117.865 384.636 117.604C384.815 117.344 385.106 117.18 385.445 117.15L451.958 111.329L403.526 183.077L463.946 177.784C464.287 177.757 464.646 177.865 464.947 178.085C465.247 178.304 465.464 178.618 465.551 178.959C465.591 179.129 465.598 179.3 465.57 179.462C465.541 179.624 465.48 179.774 465.388 179.903C465.295 180.032 465.175 180.138 465.033 180.215C464.891 180.291 464.73 180.337 464.56 180.349V180.349Z" fill="#E6E6E6"/>
<path d="M485.884 308.44C485.731 308.126 485.492 307.849 485.197 307.644C484.903 307.439 484.566 307.315 484.228 307.287C481.275 307.153 478.308 305.942 475.909 303.891C472.788 301.207 470.562 297.143 469.535 292.314C469.441 291.878 469.184 291.469 468.816 291.168C468.448 290.868 467.997 290.699 467.555 290.697V290.697C467.316 290.698 467.088 290.747 466.884 290.841C466.679 290.935 466.503 291.071 466.366 291.243C466.229 291.414 466.134 291.616 466.086 291.838C466.038 292.059 466.039 292.294 466.088 292.53C467.291 298.2 470.002 303.05 473.827 306.317C476.822 308.878 480.504 310.435 484.202 310.704H484.453C484.743 310.725 485.023 310.677 485.269 310.562C485.514 310.447 485.716 310.27 485.858 310.046C485.999 309.822 486.076 309.558 486.08 309.278C486.085 308.998 486.018 308.71 485.884 308.44V308.44Z" fill="#F0F0F0"/>
<path d="M485.668 329.126C471.009 327.875 459.034 318.142 453.331 302.943C453.242 302.714 453.2 302.478 453.206 302.248C453.212 302.018 453.266 301.798 453.366 301.603C453.465 301.407 453.608 301.24 453.785 301.111C453.962 300.982 454.17 300.894 454.397 300.851V300.851C454.826 300.774 455.296 300.867 455.709 301.112C456.121 301.357 456.445 301.735 456.613 302.167C461.734 315.824 472.397 324.577 485.44 325.687C499.733 326.905 513.419 317.743 512.48 294.653C512.456 294.203 512.614 293.789 512.922 293.501C513.229 293.212 513.661 293.073 514.124 293.112V293.112C514.358 293.131 514.593 293.195 514.816 293.301C515.038 293.408 515.243 293.553 515.419 293.73C515.594 293.907 515.737 294.111 515.838 294.331C515.939 294.551 515.996 294.781 516.007 295.009C516.847 316.783 504.563 330.732 485.668 329.126Z" fill="#F0F0F0"/>
<path d="M451.838 287.798C451.604 287.779 451.369 287.715 451.146 287.608C450.924 287.502 450.719 287.356 450.543 287.179C450.368 287.002 450.225 286.798 450.124 286.578C450.023 286.359 449.966 286.128 449.955 285.901C449.104 264.126 461.386 250.167 480.272 251.784C496.866 253.196 509.747 265.269 514.34 283.454C514.394 283.682 514.402 283.911 514.364 284.129C514.325 284.346 514.241 284.547 514.116 284.72C513.991 284.892 513.828 285.033 513.635 285.134C513.443 285.235 513.226 285.294 512.997 285.308V285.308C512.545 285.329 512.075 285.174 511.685 284.876C511.296 284.579 511.018 284.161 510.911 283.712C506.733 267.328 495.224 256.473 480.522 255.223C466.283 254.005 452.53 263.156 453.477 286.224C453.494 286.45 453.464 286.67 453.391 286.871C453.317 287.072 453.201 287.251 453.049 287.397C452.897 287.543 452.712 287.654 452.504 287.723C452.296 287.791 452.07 287.817 451.838 287.798Z" fill="#F0F0F0"/>
<path d="M484.914 319.888C482.289 319.682 479.649 319.056 477.101 318.034C476.863 317.937 476.641 317.796 476.449 317.62C476.256 317.443 476.097 317.235 475.982 317.008C475.868 316.781 475.799 316.541 475.781 316.302C475.763 316.063 475.796 315.83 475.878 315.619V315.619C476.024 315.249 476.316 314.966 476.697 314.827C477.078 314.687 477.522 314.701 477.942 314.864C480.37 315.83 482.89 316.385 485.382 316.503C496.162 317.107 506.262 309.626 504.514 291.56C503.427 280.425 498.14 271.435 490.256 267.134C489.847 266.911 489.517 266.558 489.328 266.146C489.139 265.733 489.107 265.289 489.236 264.902V264.902C489.311 264.688 489.433 264.499 489.594 264.345C489.756 264.192 489.953 264.078 490.175 264.01C490.397 263.942 490.637 263.923 490.882 263.952C491.127 263.981 491.371 264.059 491.599 264.18C500.737 269.16 506.813 279.271 508.028 291.764C509.696 309.184 500.553 320.782 485.721 319.952L484.914 319.888Z" fill="#F0F0F0"/>
<path d="M467.671 309.141C467.491 309.275 467.279 309.367 467.048 309.411C466.816 309.455 466.57 309.45 466.325 309.397C466.08 309.343 465.841 309.242 465.624 309.1C465.406 308.957 465.214 308.777 465.059 308.569C460.884 302.629 458.395 295.889 457.894 289.167C456.278 272.491 464.598 261.14 478.307 260.946C478.549 260.942 478.796 260.986 479.034 261.077C479.272 261.169 479.496 261.305 479.691 261.477C479.887 261.649 480.049 261.853 480.169 262.077C480.289 262.301 480.363 262.54 480.387 262.779V262.779C480.428 263.21 480.303 263.615 480.035 263.915C479.767 264.214 479.377 264.386 478.941 264.396C468.778 264.59 459.747 272.2 461.419 289.371C461.85 295.439 464.081 301.528 467.84 306.899C468.118 307.271 468.255 307.712 468.224 308.132C468.194 308.552 467.997 308.92 467.674 309.162L467.671 309.141Z" fill="#F0F0F0"/>
<path d="M491.313 307.782C491.087 307.399 491 306.97 491.067 306.573C491.135 306.177 491.353 305.841 491.681 305.627C495.844 302.899 497.753 297.176 496.702 290.266C495.827 284.736 493.503 280.058 490.043 277.094C488.702 275.957 487.177 275.067 485.562 274.478C483.946 273.888 482.275 273.612 480.649 273.666C475.269 273.666 471.366 276.587 469.767 281.718C469.643 282.108 469.363 282.415 468.984 282.576C468.605 282.738 468.155 282.743 467.722 282.591V282.591C467.481 282.508 467.253 282.379 467.052 282.212C466.851 282.046 466.682 281.845 466.554 281.623C466.427 281.402 466.344 281.163 466.312 280.924C466.28 280.684 466.298 280.448 466.366 280.231C468.361 273.946 473.371 270.227 480.059 270.217C482.146 270.163 484.289 270.529 486.359 271.292C488.429 272.056 490.382 273.2 492.102 274.658C496.332 278.279 499.197 283.831 500.178 290.298C501.402 298.437 499.013 305.271 493.891 308.623C493.695 308.739 493.47 308.809 493.23 308.828C492.99 308.848 492.741 308.818 492.498 308.738C492.255 308.659 492.024 308.533 491.82 308.369C491.616 308.204 491.444 308.004 491.313 307.782V307.782Z" fill="#F0F0F0"/>
<path d="M476.724 295.052C476.506 295.146 476.262 295.189 476.009 295.178C475.756 295.167 475.499 295.103 475.257 294.989C475.015 294.875 474.794 294.715 474.607 294.52C474.421 294.324 474.274 294.097 474.178 293.856C473.984 293.392 473.82 292.907 473.665 292.411C471.648 285.944 474.276 280.349 479.759 279.347C481.028 279.064 482.395 279.09 483.749 279.421C485.104 279.753 486.409 280.38 487.559 281.255C487.775 281.421 487.958 281.628 488.092 281.86C488.227 282.092 488.31 282.342 488.336 282.593C488.362 282.843 488.33 283.088 488.243 283.308C488.155 283.527 488.014 283.717 487.83 283.863L487.733 283.939C487.442 284.163 487.063 284.27 486.661 284.241C486.258 284.211 485.857 284.047 485.525 283.777C484.832 283.266 484.051 282.903 483.243 282.716C482.435 282.529 481.622 282.523 480.869 282.699C476.69 283.464 475.753 287.884 476.992 291.851C477.119 292.239 477.244 292.616 477.392 292.929C477.562 293.335 477.583 293.764 477.452 294.139C477.32 294.513 477.046 294.807 476.678 294.966L476.724 295.052Z" fill="#F0F0F0"/>
<path d="M483.549 301.692C483.27 301.666 482.991 301.57 482.739 301.415C482.487 301.259 482.27 301.049 482.109 300.804C481.948 300.559 481.848 300.288 481.818 300.015C481.788 299.742 481.83 299.477 481.94 299.245L482.055 299.008C482.172 298.761 482.363 298.561 482.606 298.43C482.848 298.299 483.134 298.242 483.432 298.264C483.985 298.295 484.529 298.263 485.054 298.167C488.702 297.499 489.859 294.05 489.302 290.536C489.224 290.114 489.304 289.702 489.525 289.377C489.746 289.052 490.095 288.835 490.506 288.768V288.768C490.743 288.731 490.992 288.745 491.239 288.81C491.485 288.874 491.723 288.986 491.937 289.14C492.15 289.293 492.335 289.484 492.479 289.701C492.623 289.917 492.723 290.154 492.772 290.396C493.762 296.022 491.125 300.668 486.214 301.563C485.354 301.725 484.458 301.768 483.549 301.692V301.692Z" fill="#F0F0F0"/>
<path d="M483.315 295.322C482.422 295.248 481.532 294.904 480.769 294.338C480.006 293.771 479.408 293.011 479.061 292.163C478.961 291.924 478.919 291.674 478.937 291.433C478.955 291.193 479.032 290.969 479.164 290.78C479.295 290.592 479.476 290.444 479.691 290.349C479.907 290.253 480.151 290.214 480.403 290.234H480.807C481.117 290.265 481.426 290.384 481.695 290.575C481.963 290.767 482.181 291.023 482.32 291.312C482.382 291.462 482.488 291.597 482.623 291.697C482.758 291.798 482.916 291.859 483.075 291.872C483.927 291.948 483.886 290.794 483.863 290.514C483.848 290.094 483.7 289.67 483.441 289.296C483.083 288.936 482.855 288.479 482.802 288.013V288.013C482.775 287.671 482.854 287.344 483.028 287.075C483.202 286.807 483.464 286.608 483.78 286.505C484.095 286.402 484.45 286.399 484.799 286.497C485.148 286.595 485.475 286.789 485.738 287.054C486.758 288.117 487.365 289.469 487.426 290.816C487.591 293.651 485.87 295.537 483.315 295.322Z" fill="#F0F0F0"/>
<path d="M444.377 256.742C444.145 256.724 443.913 256.66 443.693 256.556C443.474 256.452 443.271 256.309 443.096 256.136C442.921 255.962 442.779 255.762 442.676 255.546C442.574 255.33 442.513 255.103 442.499 254.878L441.451 239.927L456.797 241.242C457.028 241.261 457.26 241.324 457.48 241.428C457.7 241.533 457.903 241.675 458.077 241.849C458.252 242.022 458.395 242.223 458.497 242.438C458.6 242.654 458.66 242.881 458.675 243.107V243.107C458.691 243.332 458.662 243.552 458.588 243.754C458.515 243.955 458.399 244.134 458.247 244.28C458.095 244.426 457.909 244.537 457.701 244.605C457.494 244.674 457.268 244.7 457.036 244.68L445.22 243.667L446.028 255.179C446.043 255.405 446.013 255.625 445.938 255.826C445.863 256.027 445.745 256.205 445.592 256.35C445.439 256.495 445.252 256.605 445.044 256.672C444.835 256.739 444.608 256.763 444.377 256.742V256.742Z" fill="#F0F0F0"/>
<path d="M517.316 262.962C517.084 262.943 516.852 262.88 516.632 262.776C516.413 262.671 516.21 262.529 516.035 262.355C515.86 262.182 515.718 261.981 515.615 261.766C515.513 261.55 515.452 261.323 515.438 261.097L514.629 249.585L502.815 248.583C502.583 248.562 502.35 248.498 502.13 248.392C501.91 248.287 501.707 248.143 501.533 247.969C501.358 247.795 501.215 247.594 501.113 247.377C501.01 247.16 500.95 246.933 500.935 246.707V246.707C500.919 246.482 500.948 246.262 501.022 246.061C501.095 245.861 501.212 245.682 501.364 245.537C501.517 245.392 501.702 245.282 501.91 245.215C502.118 245.147 502.344 245.123 502.576 245.144L517.92 246.448L518.972 261.431C518.994 261.882 518.832 262.295 518.522 262.581C518.212 262.868 517.779 263.004 517.316 262.962Z" fill="#F0F0F0"/>
<path d="M524.69 343.354L509.346 342.05C509.114 342.03 508.881 341.965 508.661 341.86C508.441 341.755 508.238 341.611 508.064 341.436C507.889 341.262 507.747 341.061 507.644 340.845C507.542 340.628 507.481 340.4 507.466 340.174V340.174C507.45 339.949 507.479 339.73 507.553 339.529C507.627 339.328 507.743 339.15 507.896 339.005C508.048 338.859 508.234 338.75 508.442 338.682C508.649 338.615 508.876 338.591 509.107 338.612L520.922 339.614L520.115 328.112C520.098 327.886 520.128 327.665 520.202 327.463C520.276 327.261 520.393 327.081 520.546 326.935C520.699 326.789 520.886 326.678 521.095 326.61C521.304 326.542 521.532 326.518 521.765 326.539C521.996 326.558 522.228 326.621 522.448 326.725C522.668 326.829 522.871 326.972 523.045 327.146C523.22 327.319 523.362 327.519 523.465 327.735C523.567 327.951 523.628 328.178 523.642 328.403L524.69 343.354Z" fill="#F0F0F0"/>
<path d="M463.562 338.116L448.216 336.801L447.171 321.86C447.143 321.405 447.3 320.984 447.609 320.69C447.917 320.395 448.352 320.251 448.82 320.287V320.287C449.052 320.307 449.285 320.372 449.505 320.477C449.725 320.582 449.928 320.726 450.103 320.9C450.277 321.075 450.42 321.276 450.522 321.492C450.625 321.709 450.685 321.936 450.7 322.162L451.505 333.653L463.31 334.666C463.542 334.685 463.775 334.749 463.995 334.853C464.215 334.957 464.419 335.099 464.594 335.273C464.77 335.446 464.913 335.646 465.017 335.862C465.121 336.078 465.183 336.305 465.199 336.531C465.233 336.988 465.079 337.411 464.772 337.708C464.466 338.005 464.03 338.151 463.562 338.116V338.116Z" fill="#F0F0F0"/>
<path d="M130.406 305.767C130.125 305.788 129.829 305.698 129.582 305.517C129.335 305.335 129.156 305.077 129.084 304.796L126.822 295.612L135.992 294.804C136.273 294.783 136.569 294.873 136.816 295.054C137.063 295.235 137.242 295.494 137.314 295.774V295.774C137.376 296.053 137.328 296.328 137.178 296.542C137.029 296.755 136.79 296.889 136.513 296.917L129.452 297.542L131.194 304.613C131.26 304.892 131.214 305.169 131.067 305.384C130.92 305.599 130.683 305.737 130.406 305.767V305.767Z" fill="#E0E0E0"/>
<path d="M174.044 301.94C173.764 301.961 173.471 301.873 173.224 301.694C172.978 301.515 172.799 301.259 172.724 300.981L170.98 293.899L163.909 294.524C163.628 294.545 163.332 294.455 163.085 294.274C162.838 294.093 162.66 293.834 162.588 293.554V293.554C162.522 293.273 162.569 292.995 162.718 292.779C162.867 292.564 163.108 292.428 163.387 292.4L172.559 291.603L174.832 300.787C174.898 301.066 174.853 301.342 174.705 301.558C174.558 301.773 174.321 301.91 174.044 301.94V301.94Z" fill="#E0E0E0"/>
<path d="M184.895 341.511L175.714 342.319C175.432 342.34 175.137 342.251 174.89 342.069C174.643 341.888 174.464 341.63 174.392 341.349V341.349C174.326 341.068 174.373 340.79 174.523 340.575C174.672 340.359 174.912 340.223 175.192 340.196L182.254 339.581L180.512 332.51C180.446 332.231 180.492 331.955 180.639 331.739C180.786 331.524 181.023 331.387 181.3 331.357V331.357C181.58 331.336 181.874 331.424 182.12 331.603C182.366 331.782 182.546 332.038 182.62 332.316L184.895 341.511Z" fill="#E0E0E0"/>
<path d="M148.317 344.712L139.178 345.51L136.903 336.315C136.84 336.036 136.889 335.761 137.039 335.548C137.188 335.335 137.427 335.2 137.704 335.173C137.982 335.154 138.274 335.244 138.517 335.423C138.761 335.602 138.939 335.856 139.013 336.132L140.768 343.214L147.828 342.589C148.109 342.568 148.405 342.658 148.652 342.839C148.899 343.02 149.077 343.279 149.15 343.559V343.559C149.182 343.701 149.187 343.843 149.163 343.978C149.139 344.112 149.086 344.237 149.009 344.344C148.932 344.451 148.831 344.539 148.712 344.602C148.593 344.665 148.459 344.703 148.317 344.712V344.712Z" fill="#E0E0E0"/>
<path d="M149.631 152.56L114.552 155.579L112.519 147.354C111.843 143.429 112.693 139.628 114.896 136.716C117.1 133.803 120.495 131.994 124.399 131.65C128.304 131.306 132.431 132.454 135.95 134.863C139.47 137.271 142.124 140.763 143.378 144.637L144.551 149.424L149.621 148.982L148.437 144.196C147.77 141.496 146.579 138.87 144.931 136.466C143.284 134.063 141.212 131.929 138.834 130.187C136.456 128.446 133.819 127.13 131.074 126.315C128.328 125.501 125.527 125.203 122.832 125.44C117.387 125.917 112.701 128.541 109.804 132.733C108.37 134.809 107.417 137.208 107.002 139.792C106.586 142.377 106.716 145.096 107.383 147.796L109.425 156.074C107.462 156.466 105.833 157.583 104.849 159.211C103.866 160.838 103.599 162.862 104.099 164.892L111.19 193.608C111.452 194.692 111.926 195.747 112.584 196.714C113.242 197.68 114.071 198.539 115.024 199.24C115.976 199.941 117.034 200.471 118.136 200.799C119.237 201.128 120.361 201.248 121.443 201.154L160.766 197.715C161.85 197.625 162.87 197.323 163.77 196.824C164.669 196.325 165.43 195.641 166.008 194.809C166.586 193.978 166.971 193.016 167.139 191.98C167.307 190.943 167.256 189.851 166.989 188.768L159.898 160.052C159.629 158.971 159.151 157.919 158.489 156.958C157.828 155.996 156.996 155.143 156.043 154.447C155.089 153.751 154.032 153.226 152.932 152.902C151.832 152.579 150.71 152.463 149.631 152.56V152.56ZM138.01 174.69L140.449 184.575C140.57 184.973 140.61 185.378 140.566 185.767C140.522 186.155 140.395 186.518 140.193 186.833C139.99 187.148 139.717 187.41 139.389 187.601C139.061 187.791 138.685 187.908 138.285 187.943C137.885 187.979 137.47 187.932 137.063 187.806C136.657 187.68 136.268 187.477 135.921 187.21C135.575 186.943 135.277 186.617 135.047 186.253C134.817 185.889 134.659 185.494 134.583 185.092L132.142 175.197C131.155 174.651 130.324 173.838 129.766 172.874C129.207 171.911 128.951 170.845 129.034 169.83C129.116 168.814 129.533 167.9 130.225 167.218C130.916 166.536 131.848 166.121 132.886 166.031C133.925 165.942 135.017 166.182 136.008 166.719C137 167.256 137.839 168.061 138.406 169.021C138.974 169.98 139.241 171.044 139.17 172.062C139.099 173.08 138.693 174 138.01 174.69V174.69Z" fill="#EBEBEB"/>
<path d="M213.223 169.15L208.712 163.34C206.942 163.594 205.105 163.594 203.255 163.34L200.57 169.128L199.854 168.945C197.424 168.338 195.039 167.42 192.764 166.218L192.099 165.873L192.618 159.578C192.629 159.456 192.664 159.34 192.723 159.239C192.781 159.137 192.862 159.052 192.961 158.986C193.059 158.921 193.173 158.878 193.295 158.859C193.418 158.84 193.547 158.846 193.675 158.877C193.932 158.936 194.17 159.089 194.337 159.303C194.504 159.518 194.586 159.775 194.566 160.02L194.142 164.924C195.825 165.759 197.566 166.431 199.338 166.929L201.954 161.259L202.615 161.367C204.705 161.69 206.783 161.69 208.77 161.367L209.386 161.259L213.799 166.929C215.414 166.435 216.943 165.762 218.359 164.924L215.774 158.457L216.239 158.079C217.5 157.067 218.584 155.866 219.46 154.511C219.581 154.316 219.783 154.187 220.024 154.151C220.265 154.114 220.525 154.174 220.75 154.317C220.868 154.39 220.973 154.483 221.058 154.592C221.144 154.7 221.208 154.821 221.247 154.947C221.287 155.073 221.3 155.202 221.287 155.325C221.274 155.449 221.235 155.564 221.171 155.665C220.31 157.002 219.266 158.204 218.06 159.243L220.711 165.851L220.143 166.196C218.252 167.397 216.162 168.314 213.929 168.923L213.223 169.15ZM189.151 156.495C188.803 156.161 188.452 155.805 188.107 155.417L181.668 157.001L181.212 156.398C179.677 154.335 178.398 152.124 177.409 149.822L177.127 149.143L182.425 145.586C181.884 143.799 181.596 141.984 181.571 140.196L175.149 136.65L175.214 135.96C175.474 133.662 176.053 131.454 176.935 129.396L177.198 128.781L184.139 130.366C185.028 128.922 186.13 127.631 187.417 126.528L185.413 121.527C185.315 121.282 185.316 121.025 185.415 120.81C185.514 120.596 185.704 120.443 185.942 120.384V120.384C186.059 120.355 186.184 120.351 186.311 120.37C186.438 120.39 186.564 120.434 186.68 120.499C186.797 120.564 186.903 120.649 186.992 120.75C187.081 120.85 187.151 120.964 187.198 121.085L189.702 127.315L189.236 127.682C187.744 128.877 186.501 130.333 185.554 131.993L185.254 132.511L178.462 130.969C177.855 132.499 177.43 134.115 177.195 135.788L183.474 139.259L183.475 139.884C183.429 141.894 183.755 143.953 184.438 145.963L184.637 146.599L179.457 150.07C180.224 151.739 181.16 153.351 182.248 154.878L188.552 153.336L189.016 153.854C189.433 154.343 189.872 154.814 190.331 155.266C190.527 155.44 190.658 155.672 190.696 155.913C190.734 156.153 190.677 156.385 190.536 156.559V156.559C190.457 156.647 190.358 156.716 190.244 156.76C190.131 156.805 190.005 156.825 189.876 156.819C189.746 156.813 189.615 156.781 189.49 156.725C189.366 156.669 189.25 156.591 189.151 156.495V156.495ZM228.24 157.023L225.681 156.441C225.425 156.382 225.187 156.229 225.02 156.014C224.853 155.8 224.771 155.543 224.791 155.298V155.298C224.812 155.054 224.934 154.843 225.13 154.712C225.326 154.58 225.58 154.539 225.837 154.598L226.967 154.846C227.569 153.318 227.99 151.706 228.225 150.038L221.946 146.567L221.954 145.931C222 143.921 221.674 141.862 220.991 139.851L220.783 139.226L225.963 135.755C225.201 134.083 224.268 132.467 223.181 130.937L216.877 132.478L216.424 131.961C214.948 130.303 213.244 128.847 211.375 127.649L210.793 127.283L211.33 120.815C209.648 119.98 207.907 119.312 206.135 118.821L203.493 124.534L202.843 124.426C200.753 124.103 198.675 124.103 196.688 124.426L196.061 124.534L191.678 118.843L191.054 119.037C190.833 119.112 190.576 119.095 190.339 118.988C190.102 118.882 189.903 118.694 189.785 118.465V118.465C189.721 118.347 189.68 118.221 189.665 118.095C189.65 117.969 189.661 117.845 189.696 117.731C189.732 117.616 189.792 117.514 189.873 117.429C189.954 117.344 190.055 117.279 190.169 117.236C190.625 117.086 191.094 116.945 191.554 116.816L192.212 116.633L196.732 122.432C198.499 122.166 200.338 122.166 202.189 122.432L204.861 116.633L205.589 116.816C208.014 117.43 210.394 118.347 212.667 119.543L213.345 119.899L212.788 126.507C214.426 127.607 215.937 128.898 217.281 130.344L223.72 128.76L224.177 129.374C225.716 131.431 226.994 133.638 227.978 135.939L228.273 136.628L222.963 140.175C223.518 141.961 223.806 143.778 223.817 145.565L230.252 149.122L230.174 149.801C229.919 152.104 229.341 154.316 228.454 156.376L228.24 157.023ZM203.913 152.129C201.52 152.036 199.111 151.061 197.165 149.399C195.218 147.737 193.879 145.51 193.412 143.161C192.982 140.851 193.438 138.6 194.693 136.852C195.947 135.105 197.908 133.987 200.189 133.718C200.323 133.701 200.463 133.713 200.601 133.753C200.739 133.793 200.871 133.86 200.988 133.95C201.105 134.039 201.205 134.15 201.282 134.273C201.358 134.397 201.409 134.531 201.431 134.667V134.667C201.466 134.896 201.415 135.117 201.287 135.288C201.16 135.458 200.964 135.567 200.738 135.594C199.149 135.776 197.748 136.477 196.75 137.59C195.752 138.704 195.212 140.167 195.212 141.755C195.213 143.344 195.754 144.97 196.753 146.383C197.753 147.797 199.154 148.92 200.743 149.58C202.332 150.24 204.02 150.401 205.548 150.038C207.076 149.674 208.359 148.807 209.201 147.569C210.043 146.33 210.397 144.789 210.208 143.183C210.019 141.577 209.298 139.993 208.156 138.677C207.992 138.49 207.896 138.26 207.889 138.033C207.881 137.805 207.961 137.597 208.114 137.448C208.202 137.358 208.311 137.291 208.435 137.251C208.559 137.211 208.694 137.199 208.832 137.215C208.969 137.232 209.107 137.276 209.234 137.346C209.362 137.416 209.477 137.509 209.571 137.62C210.786 139.023 211.625 140.671 211.995 142.38C212.364 144.088 212.25 145.791 211.664 147.296C211.078 148.802 210.044 150.051 208.677 150.904C207.31 151.758 205.664 152.182 203.924 152.129H203.913Z" fill="#F0F0F0"/>
<path d="M157.913 248.054L154.996 244.314C153.848 244.486 152.652 244.486 151.449 244.314L149.717 248.054L149.251 247.936C147.682 247.543 146.142 246.952 144.672 246.179L144.244 245.952L144.581 241.878C144.595 241.721 144.673 241.586 144.798 241.501C144.924 241.417 145.086 241.389 145.251 241.425C145.334 241.444 145.414 241.478 145.488 241.526C145.562 241.574 145.627 241.634 145.681 241.703C145.734 241.772 145.775 241.849 145.8 241.929C145.825 242.008 145.834 242.09 145.827 242.169L145.565 245.338C146.652 245.88 147.778 246.313 148.924 246.631L150.615 242.977L151.029 243.042C152.382 243.257 153.728 243.257 155.013 243.042L155.406 242.977L158.266 246.631C159.304 246.306 160.289 245.873 161.204 245.338L159.541 241.177L159.84 240.929C160.655 240.278 161.355 239.505 161.921 238.633C161.997 238.505 162.127 238.419 162.282 238.395C162.438 238.371 162.607 238.41 162.752 238.504V238.504C162.827 238.551 162.893 238.611 162.947 238.68C163.002 238.749 163.043 238.825 163.069 238.906C163.095 238.986 163.105 239.068 163.098 239.147C163.092 239.226 163.069 239.3 163.031 239.366C162.472 240.231 161.797 241.009 161.019 241.684L162.793 245.995L162.425 246.222C161.201 246.997 159.849 247.588 158.403 247.979L157.913 248.054ZM142.364 239.873L141.689 239.194L137.484 240.207L137.193 239.819C136.213 238.483 135.402 237.051 134.784 235.561L134.594 235.119L138.017 232.823C137.658 231.662 137.471 230.481 137.462 229.32L133.311 227.024L133.361 226.582C133.521 225.093 133.893 223.664 134.468 222.335L134.634 221.936L139.17 223.014C139.722 222.07 140.405 221.216 141.201 220.47L139.914 217.236C139.882 217.158 139.866 217.077 139.866 216.998C139.866 216.919 139.882 216.843 139.914 216.775C139.946 216.706 139.993 216.647 140.051 216.601C140.11 216.554 140.18 216.521 140.256 216.503V216.503C140.409 216.467 140.581 216.495 140.733 216.579C140.885 216.664 141.006 216.799 141.07 216.956L142.689 220.977L142.379 221.224C141.419 221.991 140.62 222.926 140.013 223.995L139.815 224.329L135.445 223.337C135.06 224.325 134.786 225.366 134.627 226.442L138.682 228.684L138.681 229.093C138.671 229.741 138.717 230.398 138.817 231.055C138.926 231.716 139.089 232.376 139.305 233.028L139.433 233.427L136.089 235.669C136.586 236.749 137.191 237.793 137.892 238.784L141.945 237.781L142.249 238.116C142.525 238.435 142.818 238.741 143.126 239.032C143.251 239.144 143.334 239.292 143.359 239.447C143.383 239.601 143.347 239.75 143.257 239.862C143.211 239.923 143.15 239.973 143.078 240.007C143.007 240.041 142.927 240.059 142.843 240.06C142.76 240.061 142.674 240.045 142.591 240.012C142.509 239.98 142.431 239.933 142.364 239.873V239.873ZM167.617 240.207L165.965 239.84C165.883 239.821 165.802 239.787 165.728 239.739C165.655 239.692 165.589 239.632 165.536 239.562C165.482 239.493 165.442 239.417 165.416 239.337C165.391 239.257 165.382 239.175 165.389 239.097V239.097C165.395 239.018 165.416 238.944 165.453 238.879C165.49 238.814 165.541 238.759 165.604 238.716C165.666 238.674 165.739 238.646 165.817 238.634C165.895 238.621 165.978 238.625 166.059 238.644L166.773 238.805C167.164 237.817 167.438 236.772 167.589 235.69L163.534 233.448L163.536 233.049C163.546 232.398 163.5 231.738 163.399 231.077C163.291 230.419 163.128 229.763 162.913 229.115L162.783 228.705L166.127 226.463C165.633 225.386 165.029 224.345 164.326 223.359L160.27 224.35L159.967 224.016C159.022 222.948 157.926 222.012 156.723 221.246L156.345 220.998L156.69 216.837C155.606 216.297 154.484 215.864 153.342 215.544L151.64 219.198L151.226 219.133C149.873 218.918 148.527 218.918 147.243 219.133L146.849 219.198L144 215.544L143.595 215.673C143.451 215.721 143.284 215.709 143.13 215.638C142.976 215.568 142.847 215.445 142.771 215.296C142.73 215.22 142.704 215.139 142.694 215.059C142.684 214.978 142.69 214.898 142.713 214.825C142.736 214.751 142.775 214.685 142.827 214.631C142.88 214.577 142.945 214.535 143.018 214.509L143.912 214.229L144.342 214.121L147.259 217.861C148.408 217.689 149.603 217.689 150.806 217.861L152.539 214.121L153.003 214.229C154.572 214.628 156.112 215.222 157.583 215.996L158.023 216.223L157.614 220.535C158.668 221.253 159.643 222.086 160.517 223.014L164.712 221.936L165.004 222.335C166 223.664 166.824 225.093 167.456 226.582L167.646 227.024L164.223 229.32C164.581 230.481 164.768 231.662 164.777 232.823L168.928 235.119L168.878 235.561C168.716 237.049 168.344 238.477 167.772 239.808L167.617 240.207ZM151.903 237.048C150.404 236.948 148.91 236.312 147.705 235.261C146.501 234.21 145.671 232.818 145.374 231.351C145.077 229.884 145.333 228.445 146.094 227.309C146.856 226.173 148.068 225.419 149.501 225.191C149.587 225.182 149.677 225.191 149.765 225.218C149.853 225.245 149.937 225.288 150.012 225.346C150.087 225.404 150.151 225.475 150.2 225.554C150.249 225.633 150.282 225.719 150.297 225.806C150.321 225.955 150.289 226.1 150.206 226.211C150.122 226.323 149.995 226.393 149.847 226.409C148.943 226.513 148.13 226.878 147.507 227.46C146.883 228.041 146.476 228.815 146.334 229.687C146.192 230.56 146.321 231.493 146.706 232.376C147.091 233.258 147.715 234.052 148.503 234.661C149.291 235.27 150.209 235.669 151.147 235.809C152.085 235.949 153.002 235.824 153.788 235.449C154.575 235.075 155.196 234.467 155.578 233.699C155.96 232.931 156.086 232.035 155.94 231.12C155.788 230.147 155.333 229.197 154.637 228.403C154.534 228.281 154.475 228.133 154.47 227.987C154.465 227.84 154.514 227.705 154.609 227.606V227.606C154.665 227.547 154.736 227.504 154.816 227.477C154.896 227.451 154.984 227.442 155.073 227.453C155.163 227.463 155.252 227.491 155.334 227.536C155.417 227.581 155.492 227.642 155.554 227.714C156.336 228.621 156.875 229.685 157.113 230.787C157.35 231.89 157.276 232.989 156.898 233.96C156.52 234.932 155.854 235.739 154.974 236.292C154.093 236.845 153.032 237.122 151.91 237.092L151.903 237.048Z" fill="#E6E6E6"/>
<path d="M346.254 460.86C463.121 460.86 556.995 455.397 555.927 448.658C554.86 441.918 459.256 436.455 342.389 436.455C225.522 436.455 131.649 441.918 132.716 448.658C133.783 455.397 229.388 460.86 346.254 460.86Z" fill="#F5F5F5"/>
<path d="M422.065 157.767H386.53L406.373 441.532H441.907C446.88 441.437 451.36 439.543 454.502 436.207C457.645 432.871 459.233 428.324 458.968 423.423L441.684 175.865C441.573 173.559 440.958 171.225 439.879 169.019C438.799 166.814 437.281 164.788 435.425 163.075C433.568 161.363 431.417 160.004 429.113 159.088C426.809 158.173 424.407 157.722 422.065 157.767V157.767Z" fill="#407BFF"/>
<path d="M414.818 157.767H294.549C289.576 157.859 285.095 159.751 281.95 163.084C278.805 166.418 277.214 170.964 277.477 175.865L294.76 423.423C294.873 425.728 295.489 428.06 296.567 430.263C297.645 432.467 299.162 434.492 301.015 436.205C302.868 437.917 305.017 439.278 307.317 440.197C309.618 441.115 312.018 441.57 314.359 441.533H434.617C439.581 441.427 444.051 439.529 447.187 436.194C450.322 432.86 451.908 428.318 451.645 423.423L434.361 175.865C434.25 173.565 433.638 171.238 432.564 169.038C431.49 166.838 429.979 164.815 428.131 163.104C426.283 161.393 424.141 160.032 421.846 159.112C419.551 158.192 417.155 157.733 414.818 157.767V157.767Z" fill="#407BFF"/>
<path opacity="0.3" d="M414.818 157.767H294.549C289.576 157.859 285.095 159.751 281.95 163.084C278.805 166.418 277.214 170.964 277.477 175.865L294.76 423.423C294.873 425.728 295.489 428.06 296.567 430.263C297.645 432.467 299.162 434.492 301.015 436.205C302.868 437.917 305.017 439.278 307.317 440.197C309.618 441.115 312.018 441.57 314.359 441.533H434.617C439.581 441.427 444.051 439.529 447.187 436.194C450.322 432.86 451.908 428.318 451.645 423.423L434.361 175.865C434.25 173.565 433.638 171.238 432.564 169.038C431.49 166.838 429.979 164.815 428.131 163.104C426.283 161.393 424.141 160.032 421.846 159.112C419.551 158.192 417.155 157.733 414.818 157.767V157.767Z" fill="white"/>
<path opacity="0.4" d="M415.224 163.566H383.509C382.564 163.574 381.688 163.861 380.994 164.392C380.3 164.922 379.819 165.671 379.614 166.541V166.541C378.87 169.738 377.12 172.494 374.587 174.459C372.054 176.423 368.854 177.505 365.394 177.568H346.688C343.431 177.633 340.074 176.571 337.196 174.564C334.319 172.557 332.1 169.731 330.923 166.573V166.573C330.607 165.719 330.008 164.954 329.23 164.411C328.453 163.867 327.545 163.58 326.664 163.598H294.96C291.58 163.658 288.533 164.942 286.396 167.208C284.259 169.475 283.18 172.566 283.364 175.898L300.637 423.456C300.71 425.023 301.126 426.609 301.857 428.109C302.589 429.609 303.62 430.987 304.88 432.152C306.141 433.317 307.603 434.242 309.168 434.865C310.734 435.488 312.367 435.795 313.959 435.766H434.228C437.609 435.704 440.655 434.417 442.792 432.149C444.928 429.881 446.006 426.788 445.822 423.456L428.538 175.898C428.468 174.329 428.055 172.741 427.325 171.24C426.595 169.739 425.566 168.358 424.305 167.191C423.045 166.024 421.583 165.097 420.017 164.472C418.451 163.846 416.817 163.538 415.224 163.566V163.566Z" fill="white"/>
<path d="M406.56 298.081H322.394C321.817 298.091 321.225 297.978 320.658 297.752C320.091 297.526 319.561 297.191 319.104 296.769C318.647 296.347 318.273 295.847 318.007 295.304C317.741 294.761 317.589 294.187 317.561 293.619L317.232 288.854C317.166 287.646 317.557 286.525 318.332 285.703C319.107 284.881 320.211 284.414 321.437 284.391H405.614C406.191 284.382 406.783 284.494 407.35 284.721C407.917 284.947 408.446 285.282 408.903 285.704C409.36 286.126 409.734 286.625 410 287.168C410.266 287.711 410.418 288.286 410.446 288.854L410.786 293.619C410.85 294.829 410.455 295.952 409.677 296.774C408.898 297.596 407.789 298.061 406.56 298.081Z" fill="white"/>
<path d="M407.992 318.562H323.815C323.238 318.571 322.647 318.459 322.08 318.233C321.514 318.007 320.985 317.671 320.529 317.249C320.072 316.827 319.7 316.327 319.435 315.784C319.17 315.241 319.02 314.667 318.994 314.099L318.654 309.335C318.59 308.128 318.982 307.008 319.756 306.186C320.53 305.364 321.633 304.897 322.858 304.872H407.035C407.612 304.863 408.204 304.975 408.771 305.201C409.338 305.428 409.868 305.763 410.325 306.185C410.782 306.607 411.155 307.106 411.421 307.649C411.687 308.192 411.839 308.767 411.867 309.335L412.196 314.099C412.26 315.306 411.868 316.426 411.094 317.248C410.32 318.07 409.217 318.537 407.992 318.562Z" fill="white"/>
<path opacity="0.1" d="M360.418 168.201C360.492 169.543 360.057 170.787 359.196 171.699C358.334 172.611 357.107 173.127 355.745 173.149C355.105 173.16 354.449 173.037 353.82 172.786C353.191 172.535 352.603 172.164 352.096 171.696C351.59 171.227 351.175 170.674 350.881 170.071C350.586 169.469 350.418 168.831 350.388 168.201C350.315 166.86 350.75 165.615 351.611 164.703C352.472 163.791 353.7 163.275 355.062 163.253C355.701 163.242 356.358 163.366 356.987 163.616C357.616 163.867 358.203 164.239 358.71 164.707C359.217 165.175 359.631 165.728 359.926 166.331C360.22 166.934 360.388 167.571 360.418 168.201V168.201Z" fill="black"/>
<path opacity="0.1" d="M358.148 168.201C358.187 168.933 357.949 169.613 357.479 170.111C357.01 170.609 356.34 170.892 355.597 170.907C355.247 170.913 354.888 170.846 354.544 170.709C354.2 170.572 353.879 170.369 353.601 170.113C353.324 169.857 353.098 169.554 352.937 169.224C352.776 168.894 352.685 168.546 352.669 168.201C352.628 167.468 352.865 166.787 353.335 166.288C353.805 165.79 354.476 165.508 355.22 165.495C355.57 165.49 355.928 165.559 356.272 165.696C356.615 165.834 356.936 166.037 357.213 166.293C357.489 166.549 357.716 166.851 357.877 167.18C358.038 167.509 358.131 167.857 358.148 168.201Z" fill="black"/>
<g opacity="0.8">
<path d="M402.456 176.458C402.268 176.461 402.075 176.424 401.891 176.35C401.706 176.276 401.534 176.166 401.385 176.029C401.236 175.891 401.115 175.729 401.028 175.552C400.942 175.375 400.892 175.188 400.883 175.003L400.703 172.351C400.681 171.959 400.808 171.596 401.06 171.329C401.311 171.063 401.67 170.913 402.068 170.907C402.255 170.904 402.446 170.941 402.63 171.014C402.814 171.088 402.985 171.196 403.133 171.332C403.282 171.469 403.403 171.63 403.49 171.805C403.578 171.981 403.628 172.167 403.639 172.351L403.819 175.003C403.841 175.396 403.715 175.761 403.464 176.029C403.213 176.297 402.854 176.449 402.456 176.458Z" fill="white"/>
<path d="M414.199 176.458C414.011 176.461 413.818 176.424 413.634 176.35C413.449 176.276 413.277 176.166 413.128 176.029C412.98 175.891 412.858 175.729 412.771 175.552C412.685 175.375 412.635 175.188 412.626 175.003L412.198 168.783C412.176 168.391 412.303 168.028 412.554 167.761C412.806 167.495 413.164 167.345 413.562 167.339C413.749 167.336 413.941 167.373 414.124 167.446C414.308 167.52 414.48 167.628 414.628 167.764C414.776 167.901 414.898 168.062 414.985 168.238C415.072 168.413 415.123 168.599 415.133 168.783L415.562 175.003C415.584 175.396 415.458 175.761 415.207 176.029C414.956 176.297 414.597 176.449 414.199 176.458Z" fill="white"/>
<path d="M408.327 176.458C408.139 176.461 407.947 176.424 407.762 176.35C407.578 176.276 407.405 176.166 407.257 176.029C407.108 175.891 406.986 175.729 406.9 175.552C406.813 175.375 406.764 175.188 406.755 175.003L406.446 170.573C406.423 170.178 406.551 169.811 406.804 169.543C407.058 169.275 407.419 169.123 407.82 169.117V169.117C408.007 169.115 408.199 169.151 408.383 169.226C408.568 169.3 408.739 169.409 408.887 169.547C409.035 169.685 409.156 169.847 409.241 170.024C409.326 170.201 409.374 170.388 409.382 170.573L409.69 175.003C409.713 175.396 409.586 175.761 409.335 176.029C409.084 176.297 408.726 176.449 408.327 176.458V176.458Z" fill="white"/>
</g>
<g opacity="0.8">
<path d="M301.908 176.458H294.53C294.425 176.46 294.316 176.44 294.212 176.399C294.108 176.357 294.01 176.296 293.927 176.218C293.843 176.14 293.775 176.048 293.727 175.948C293.678 175.849 293.651 175.743 293.648 175.639L293.366 171.726C293.355 171.504 293.427 171.298 293.57 171.147C293.713 170.996 293.917 170.911 294.142 170.907H301.52C301.626 170.904 301.734 170.925 301.838 170.966C301.943 171.007 302.04 171.069 302.123 171.147C302.207 171.224 302.275 171.316 302.323 171.416C302.372 171.516 302.399 171.622 302.403 171.726L302.673 175.639C302.689 175.861 302.62 176.068 302.478 176.22C302.337 176.371 302.133 176.456 301.908 176.458V176.458Z" fill="white"/>
<path d="M305.155 175.391C305.049 175.393 304.94 175.373 304.835 175.331C304.731 175.29 304.633 175.229 304.548 175.151C304.464 175.074 304.395 174.982 304.345 174.882C304.296 174.782 304.267 174.676 304.261 174.572L304.142 172.782C304.128 172.559 304.2 172.352 304.343 172.201C304.486 172.049 304.691 171.965 304.918 171.963V171.963C305.023 171.961 305.132 171.981 305.236 172.022C305.34 172.064 305.438 172.126 305.521 172.203C305.605 172.281 305.673 172.373 305.721 172.473C305.769 172.573 305.796 172.678 305.8 172.782L305.931 174.572C305.942 174.794 305.87 175 305.727 175.151C305.584 175.301 305.38 175.387 305.155 175.391V175.391Z" fill="white"/>
</g>
<path d="M387.728 266.746C400.215 252.861 398.191 230.832 383.207 217.543C368.223 204.255 345.953 204.74 333.466 218.625C320.98 232.511 323.004 254.54 337.988 267.828C352.972 281.117 375.241 280.632 387.728 266.746Z" fill="white"/>
<path d="M360.513 241.36C351.258 241.36 343.985 244.842 344.516 252.398L345.104 260.795H378.641L378.054 252.398C377.523 244.842 369.779 241.36 360.513 241.36Z" fill="#407BFF"/>
<path d="M360.271 237.9C364.571 237.9 366.013 234.462 365.711 230.214C365.409 225.967 363.501 222.529 359.201 222.529C354.901 222.529 353.471 225.978 353.76 230.214C354.049 234.451 355.971 237.9 360.271 237.9Z" fill="#407BFF"/>
<path d="M401.588 290.945C399.307 290.945 397.512 291.808 397.655 293.672L397.798 295.753H406.082L405.938 293.672C405.795 291.808 403.88 290.945 401.588 290.945Z" fill="#407BFF"/>
<path d="M401.53 290.094C402.621 290.094 402.944 289.242 402.877 288.196C402.81 287.151 402.326 286.299 401.267 286.299C400.208 286.299 399.852 287.151 399.919 288.196C399.987 289.242 400.471 290.094 401.53 290.094Z" fill="#407BFF"/>
<path d="M383.712 339.043H350.97C350.085 339.058 349.177 338.887 348.307 338.541C347.436 338.194 346.623 337.68 345.922 337.033C345.22 336.385 344.646 335.619 344.239 334.785C343.831 333.952 343.598 333.07 343.556 332.198C343.457 330.344 344.059 328.625 345.248 327.364C346.438 326.103 348.133 325.388 350.014 325.353H382.755C383.64 325.339 384.547 325.511 385.417 325.858C386.287 326.205 387.099 326.719 387.8 327.367C388.501 328.014 389.075 328.779 389.483 329.612C389.891 330.445 390.125 331.326 390.169 332.198V332.198C390.271 334.052 389.67 335.773 388.48 337.034C387.29 338.296 385.593 339.01 383.712 339.043V339.043Z" fill="#407BFF"/>
<path d="M391.841 415.382H356.797C355.861 415.407 354.899 415.232 353.975 414.868C353.052 414.505 352.19 413.961 351.448 413.275C350.705 412.589 350.1 411.775 349.673 410.891C349.246 410.006 349.007 409.071 348.972 408.149L347.211 382.904C347.101 380.945 347.733 379.127 348.989 377.794C350.244 376.461 352.035 375.706 354.022 375.671H389.076C390.011 375.654 390.97 375.836 391.89 376.202C392.809 376.569 393.667 377.112 394.407 377.796C395.148 378.481 395.753 379.29 396.183 380.171C396.613 381.051 396.858 381.983 396.901 382.904L398.662 408.149C398.768 410.107 398.132 411.924 396.875 413.256C395.619 414.589 393.828 415.345 391.841 415.382Z" fill="#407BFF"/>
<g opacity="0.6">
<path d="M376.901 389.274C376.871 388.723 376.721 388.167 376.461 387.641C376.201 387.116 375.837 386.633 375.393 386.226C374.949 385.818 374.435 385.495 373.885 385.277C373.334 385.059 372.761 384.952 372.202 384.963C371.011 384.98 369.935 385.427 369.179 386.222C368.422 387.016 368.036 388.102 368.094 389.274C368.128 389.93 368.332 390.593 368.686 391.201C369.039 391.809 369.532 392.344 370.119 392.756L370.732 401.455C370.747 401.784 370.834 402.118 370.988 402.433C371.142 402.749 371.358 403.039 371.623 403.284C371.889 403.528 372.196 403.723 372.525 403.854C372.854 403.984 373.198 404.049 373.532 404.042C374.241 404.027 374.879 403.756 375.327 403.279C375.774 402.803 375.999 402.154 375.96 401.455L375.357 392.756C375.879 392.361 376.288 391.845 376.555 391.244C376.821 390.642 376.94 389.97 376.901 389.274V389.274Z" fill="white"/>
</g>
<path d="M390.215 380.931H385.697L384.809 368.438C384.725 366.704 384.263 364.95 383.452 363.292C382.641 361.634 381.501 360.11 380.107 358.821C378.712 357.533 377.096 356.509 375.366 355.818C373.635 355.127 371.829 354.784 370.068 354.813C366.327 354.885 362.957 356.31 360.592 358.82C358.228 361.33 357.032 364.75 357.231 368.438L358.118 380.931H353.6L352.712 368.438C352.446 363.544 354.031 359.004 357.169 355.674C360.307 352.343 364.78 350.454 369.745 350.361C372.082 350.321 374.479 350.775 376.777 351.691C379.074 352.607 381.22 353.965 383.071 355.675C384.922 357.385 386.437 359.407 387.513 361.607C388.59 363.808 389.205 366.136 389.317 368.438L390.215 380.931Z" fill="#407BFF"/>
<path d="M405.175 310.079L405.124 308.861C405.109 308.578 405.032 308.293 404.899 308.024C404.766 307.754 404.58 307.506 404.354 307.297C404.127 307.087 403.864 306.92 403.582 306.807C403.301 306.694 403.007 306.637 402.721 306.64C402.111 306.652 401.562 306.885 401.177 307.294C400.791 307.703 400.596 308.26 400.628 308.861L400.708 310.057C400.465 310.064 400.246 310.158 400.093 310.323C399.941 310.488 399.864 310.711 399.878 310.952L400.107 314.186C400.11 314.299 400.139 314.413 400.191 314.522C400.244 314.63 400.318 314.73 400.409 314.814C400.5 314.898 400.606 314.965 400.719 315.009C400.833 315.053 400.951 315.073 401.065 315.069H405.562C405.805 315.065 406.023 314.973 406.177 314.81C406.33 314.647 406.407 314.425 406.393 314.186L406.165 310.952C406.156 310.837 406.122 310.723 406.066 310.615C406.01 310.507 405.933 310.408 405.839 310.326C405.746 310.243 405.638 310.178 405.524 310.136C405.409 310.093 405.29 310.074 405.175 310.079V310.079ZM402.68 307.211C402.896 307.209 403.118 307.251 403.33 307.336C403.542 307.421 403.74 307.547 403.911 307.704C404.083 307.862 404.223 308.048 404.324 308.251C404.424 308.454 404.482 308.669 404.494 308.882L404.575 310.079H401.192L401.111 308.882C401.087 308.431 401.234 308.013 401.522 307.705C401.811 307.397 402.223 307.222 402.68 307.211V307.211Z" fill="#407BFF"/>
<path d="M337.692 311.361L336.069 311.038C336.024 311.029 335.979 311.011 335.94 310.984C335.9 310.957 335.866 310.922 335.84 310.883C335.813 310.843 335.796 310.8 335.788 310.756C335.781 310.712 335.784 310.668 335.796 310.628L336.209 309.098C336.226 309.032 336.217 308.958 336.183 308.89C336.15 308.822 336.095 308.764 336.028 308.727C335.96 308.69 335.885 308.675 335.815 308.685C335.745 308.696 335.686 308.731 335.646 308.785L334.648 309.992C334.625 310.028 334.593 310.057 334.555 310.077C334.516 310.097 334.472 310.107 334.426 310.107C334.38 310.107 334.333 310.097 334.288 310.077C334.243 310.057 334.202 310.028 334.168 309.992L333.005 308.785C332.757 308.526 332.35 308.785 332.476 309.098L333.101 310.628C333.119 310.673 333.128 310.72 333.127 310.765C333.127 310.81 333.116 310.854 333.097 310.892C333.077 310.93 333.049 310.963 333.014 310.988C332.979 311.013 332.938 311.03 332.893 311.038L331.318 311.361C330.979 311.426 331.012 311.911 331.361 311.976L332.983 312.299C333.029 312.307 333.073 312.326 333.113 312.353C333.152 312.38 333.186 312.415 333.212 312.455C333.237 312.494 333.254 312.538 333.259 312.583C333.265 312.627 333.26 312.67 333.245 312.709L332.856 314.25C332.839 314.316 332.848 314.39 332.881 314.458C332.915 314.525 332.97 314.583 333.037 314.621C333.105 314.658 333.18 314.673 333.25 314.662C333.32 314.652 333.379 314.616 333.418 314.563L334.417 313.356C334.442 313.323 334.475 313.297 334.514 313.279C334.552 313.261 334.595 313.252 334.64 313.252C334.686 313.252 334.732 313.261 334.776 313.279C334.82 313.297 334.861 313.323 334.897 313.356L336.06 314.563C336.308 314.821 336.714 314.563 336.578 314.25L335.953 312.719C335.923 312.628 335.928 312.534 335.969 312.458C336.01 312.381 336.083 312.328 336.172 312.31L337.747 311.987C338.073 311.911 338.04 311.426 337.692 311.361Z" fill="#263238"/>
<path d="M348.016 311.361L346.393 311.038C346.348 311.029 346.304 311.011 346.264 310.984C346.224 310.957 346.19 310.922 346.164 310.883C346.138 310.843 346.12 310.8 346.113 310.756C346.105 310.712 346.108 310.668 346.121 310.628L346.533 309.098C346.55 309.032 346.541 308.958 346.508 308.89C346.475 308.822 346.419 308.764 346.352 308.727C346.285 308.69 346.209 308.675 346.139 308.685C346.07 308.696 346.01 308.731 345.971 308.785L344.972 309.992C344.949 310.028 344.918 310.057 344.879 310.077C344.841 310.097 344.797 310.107 344.751 310.107C344.704 310.107 344.657 310.097 344.612 310.077C344.568 310.057 344.526 310.028 344.492 309.992L343.33 308.785C343.081 308.526 342.675 308.785 342.812 309.098L343.436 310.628C343.453 310.674 343.46 310.72 343.458 310.766C343.456 310.811 343.444 310.854 343.424 310.893C343.404 310.931 343.375 310.963 343.339 310.988C343.304 311.013 343.262 311.03 343.217 311.038L341.642 311.361C341.303 311.426 341.336 311.911 341.685 311.976L343.308 312.299C343.353 312.308 343.397 312.326 343.437 312.353C343.476 312.38 343.511 312.415 343.537 312.454C343.563 312.494 343.581 312.537 343.588 312.581C343.596 312.625 343.593 312.669 343.58 312.709L343.168 314.239C343.151 314.305 343.16 314.379 343.193 314.447C343.226 314.515 343.281 314.573 343.349 314.61C343.416 314.648 343.492 314.662 343.561 314.652C343.631 314.641 343.691 314.606 343.73 314.552L344.728 313.345C344.754 313.312 344.787 313.286 344.825 313.268C344.864 313.25 344.907 313.241 344.952 313.241C344.997 313.241 345.043 313.25 345.087 313.268C345.132 313.286 345.173 313.312 345.209 313.345L346.371 314.552C346.62 314.811 347.026 314.552 346.9 314.239L346.276 312.709C346.259 312.664 346.251 312.618 346.253 312.573C346.254 312.528 346.265 312.486 346.284 312.448C346.304 312.41 346.331 312.377 346.365 312.351C346.4 312.326 346.44 312.308 346.484 312.299L348.059 311.976C348.398 311.911 348.364 311.426 348.016 311.361Z" fill="#263238"/>
<path d="M358.34 311.361L356.728 311.038C356.682 311.031 356.637 311.014 356.596 310.988C356.555 310.961 356.52 310.926 356.493 310.886C356.466 310.846 356.449 310.802 356.443 310.757C356.436 310.712 356.441 310.668 356.456 310.628L356.868 309.098C356.9 309.029 356.899 308.947 356.867 308.869C356.836 308.791 356.775 308.724 356.699 308.683C356.623 308.641 356.538 308.629 356.462 308.648C356.386 308.667 356.326 308.716 356.295 308.785L355.308 309.992C355.284 310.028 355.251 310.057 355.212 310.077C355.172 310.097 355.127 310.108 355.08 310.108C355.033 310.108 354.985 310.097 354.94 310.077C354.894 310.057 354.852 310.028 354.817 309.992L353.654 308.785C353.406 308.526 352.999 308.785 353.136 309.098L353.76 310.628C353.777 310.673 353.785 310.719 353.783 310.764C353.782 310.809 353.771 310.851 353.752 310.889C353.733 310.927 353.705 310.96 353.671 310.986C353.636 311.011 353.596 311.029 353.552 311.038L351.978 311.361C351.639 311.426 351.672 311.911 352.02 311.976L353.632 312.299C353.677 312.308 353.721 312.327 353.761 312.353C353.801 312.38 353.835 312.415 353.861 312.454C353.887 312.494 353.905 312.537 353.912 312.581C353.92 312.625 353.917 312.669 353.904 312.709L353.492 314.239C353.461 314.308 353.461 314.39 353.493 314.468C353.525 314.546 353.585 314.613 353.661 314.654C353.737 314.696 353.823 314.708 353.898 314.689C353.974 314.67 354.034 314.621 354.065 314.552L355.053 313.345C355.078 313.312 355.111 313.286 355.15 313.268C355.188 313.25 355.231 313.241 355.277 313.241C355.322 313.241 355.368 313.25 355.412 313.268C355.456 313.286 355.497 313.312 355.533 313.345L356.706 314.552C356.955 314.811 357.361 314.552 357.224 314.239L356.6 312.709C356.569 312.619 356.574 312.526 356.613 312.45C356.651 312.374 356.721 312.32 356.808 312.299L358.383 311.976C358.678 311.911 358.689 311.426 358.34 311.361Z" fill="#263238"/>
<path d="M368.675 311.361L367.053 311.038C367.007 311.029 366.963 311.011 366.924 310.984C366.884 310.957 366.85 310.922 366.824 310.883C366.797 310.843 366.78 310.8 366.772 310.756C366.765 310.712 366.768 310.668 366.78 310.628L367.193 309.098C367.21 309.032 367.201 308.958 367.167 308.89C367.134 308.822 367.079 308.764 367.012 308.727C366.944 308.69 366.869 308.675 366.799 308.685C366.729 308.696 366.669 308.731 366.63 308.785L365.632 309.992C365.609 310.028 365.577 310.057 365.539 310.077C365.5 310.097 365.456 310.107 365.41 310.107C365.364 310.107 365.317 310.097 365.272 310.077C365.227 310.057 365.186 310.028 365.152 309.992L363.989 308.785C363.741 308.526 363.334 308.785 363.46 309.098L364.085 310.628C364.103 310.673 364.112 310.72 364.111 310.765C364.111 310.81 364.1 310.854 364.081 310.892C364.061 310.93 364.033 310.963 363.998 310.988C363.963 311.013 363.922 311.03 363.877 311.038L362.302 311.361C361.963 311.426 361.996 311.911 362.399 311.976L364.022 312.299C364.067 312.307 364.112 312.326 364.151 312.353C364.191 312.38 364.225 312.415 364.25 312.455C364.276 312.494 364.292 312.538 364.298 312.583C364.304 312.627 364.299 312.67 364.283 312.709L363.882 314.239C363.865 314.305 363.874 314.379 363.907 314.447C363.94 314.515 363.996 314.573 364.063 314.61C364.131 314.648 364.206 314.662 364.276 314.652C364.345 314.641 364.405 314.606 364.444 314.552L365.443 313.345C365.468 313.312 365.501 313.286 365.54 313.268C365.578 313.25 365.621 313.241 365.666 313.241C365.711 313.241 365.757 313.25 365.802 313.268C365.846 313.286 365.887 313.312 365.923 313.345L367.085 314.552C367.334 314.811 367.74 314.552 367.603 314.239L366.979 312.709C366.948 312.617 366.954 312.523 366.995 312.447C367.036 312.37 367.109 312.317 367.198 312.299L368.773 311.976C369.057 311.911 369.024 311.426 368.675 311.361Z" fill="#263238"/>
<path d="M379 311.361L377.377 311.038C377.332 311.029 377.288 311.011 377.248 310.984C377.208 310.957 377.174 310.922 377.148 310.883C377.122 310.843 377.104 310.8 377.097 310.756C377.089 310.712 377.092 310.668 377.105 310.628L377.517 309.098C377.534 309.032 377.525 308.958 377.492 308.89C377.459 308.822 377.403 308.764 377.336 308.727C377.268 308.69 377.193 308.675 377.123 308.685C377.054 308.696 376.994 308.731 376.955 308.785L375.956 309.992C375.933 310.028 375.902 310.057 375.863 310.077C375.825 310.097 375.781 310.107 375.734 310.107C375.688 310.107 375.641 310.097 375.596 310.077C375.551 310.057 375.51 310.028 375.476 309.992L374.314 308.785C374.065 308.526 373.659 308.785 373.796 309.098L374.42 310.628C374.437 310.674 374.444 310.72 374.442 310.766C374.44 310.811 374.428 310.854 374.408 310.893C374.388 310.931 374.359 310.963 374.323 310.988C374.288 311.013 374.246 311.03 374.201 311.038L372.626 311.361C372.287 311.426 372.32 311.911 372.669 311.976L374.292 312.299C374.337 312.308 374.381 312.326 374.421 312.353C374.46 312.38 374.495 312.415 374.521 312.454C374.547 312.494 374.565 312.537 374.572 312.581C374.58 312.625 374.577 312.669 374.564 312.709L374.152 314.239C374.135 314.305 374.144 314.379 374.177 314.447C374.21 314.515 374.265 314.573 374.333 314.61C374.4 314.648 374.476 314.662 374.545 314.652C374.615 314.641 374.675 314.606 374.714 314.552L375.712 313.345C375.738 313.312 375.771 313.286 375.809 313.268C375.848 313.25 375.891 313.241 375.936 313.241C375.981 313.241 376.027 313.25 376.071 313.268C376.116 313.286 376.157 313.312 376.193 313.345L377.355 314.552C377.604 314.811 378.01 314.552 377.884 314.239L377.26 312.709C377.243 312.664 377.235 312.618 377.237 312.573C377.238 312.528 377.249 312.486 377.268 312.448C377.288 312.41 377.315 312.377 377.349 312.351C377.384 312.326 377.424 312.308 377.468 312.299L379.043 311.976C379.414 311.911 379.337 311.426 379 311.361Z" fill="#263238"/>
<path d="M389.324 311.361L387.701 311.038C387.656 311.03 387.612 311.011 387.572 310.984C387.532 310.957 387.498 310.923 387.473 310.883C387.447 310.843 387.431 310.799 387.426 310.755C387.42 310.71 387.425 310.667 387.44 310.628L387.852 309.098C387.868 309.064 387.876 309.026 387.876 308.987C387.875 308.948 387.867 308.908 387.851 308.869C387.836 308.83 387.813 308.794 387.784 308.762C387.755 308.73 387.721 308.703 387.683 308.683C387.645 308.662 387.605 308.649 387.564 308.643C387.524 308.637 387.483 308.638 387.446 308.648C387.408 308.657 387.374 308.674 387.346 308.698C387.317 308.722 387.294 308.751 387.279 308.785L386.292 309.992C386.268 310.028 386.235 310.057 386.195 310.077C386.156 310.097 386.111 310.108 386.064 310.108C386.017 310.108 385.969 310.097 385.924 310.077C385.878 310.057 385.836 310.028 385.801 309.992L384.638 308.785C384.39 308.526 383.983 308.785 384.12 309.098L384.744 310.628C384.761 310.673 384.769 310.719 384.767 310.764C384.766 310.809 384.755 310.851 384.736 310.889C384.716 310.927 384.689 310.96 384.655 310.986C384.62 311.011 384.58 311.029 384.536 311.038L382.961 311.361C382.622 311.426 382.656 311.911 383.004 311.976L384.616 312.299C384.661 312.308 384.705 312.327 384.745 312.353C384.785 312.38 384.819 312.415 384.845 312.454C384.871 312.494 384.889 312.537 384.896 312.581C384.904 312.625 384.901 312.669 384.888 312.709L384.476 314.239C384.445 314.308 384.445 314.39 384.477 314.468C384.509 314.546 384.569 314.613 384.645 314.654C384.721 314.696 384.807 314.708 384.882 314.689C384.958 314.67 385.018 314.621 385.049 314.552L386.037 313.345C386.062 313.312 386.095 313.286 386.134 313.268C386.172 313.25 386.215 313.241 386.26 313.241C386.306 313.241 386.352 313.25 386.396 313.268C386.44 313.286 386.481 313.312 386.517 313.345L387.68 314.552C387.739 314.608 387.814 314.646 387.892 314.659C387.969 314.672 388.045 314.659 388.106 314.623C388.167 314.587 388.211 314.529 388.229 314.459C388.248 314.39 388.241 314.312 388.208 314.239L387.584 312.709C387.553 312.619 387.558 312.526 387.597 312.45C387.635 312.374 387.705 312.32 387.792 312.299L389.367 311.976C389.706 311.911 389.673 311.426 389.324 311.361Z" fill="#263238"/>
<path d="M360.894 289.037H341.512C340.918 289.047 340.384 289.272 340.008 289.67C339.633 290.067 339.443 290.609 339.474 291.193C339.486 291.468 339.559 291.747 339.688 292.01C339.816 292.273 339.997 292.515 340.218 292.719C340.44 292.923 340.697 293.085 340.972 293.194C341.247 293.303 341.533 293.355 341.813 293.349H361.195C361.788 293.339 362.323 293.114 362.699 292.717C363.074 292.32 363.264 291.778 363.233 291.193C363.219 290.919 363.145 290.641 363.016 290.378C362.887 290.116 362.706 289.875 362.485 289.671C362.264 289.467 362.008 289.305 361.733 289.196C361.459 289.087 361.173 289.033 360.894 289.037Z" fill="#263238"/>
<path d="M380.583 289.037H369.331C368.739 289.048 368.205 289.273 367.832 289.67C367.458 290.068 367.27 290.61 367.304 291.193C367.316 291.467 367.389 291.745 367.516 292.007C367.644 292.27 367.824 292.511 368.044 292.715C368.264 292.919 368.52 293.081 368.794 293.19C369.067 293.3 369.353 293.354 369.632 293.349H380.84C381.432 293.339 381.965 293.114 382.339 292.716C382.713 292.319 382.9 291.777 382.867 291.193C382.855 290.923 382.784 290.649 382.659 290.39C382.535 290.13 382.359 289.891 382.143 289.688C381.928 289.484 381.678 289.321 381.409 289.209C381.14 289.097 380.858 289.039 380.583 289.037V289.037Z" fill="#263238"/>
<path d="M410.913 386.752C404.47 389.329 398.927 393.38 394.685 398.609C391.232 396.248 387.326 394.758 383.383 394.298L382.858 394.222L383.043 396.766L383.343 396.874C387.832 398.417 391.883 401.335 394.837 405.152L395.304 405.756L395.605 405.109C398.996 397.983 404.457 392.189 411.415 388.337L411.645 388.207L411.521 386.526L410.913 386.752Z" fill="#263238"/>
<path opacity="0.2" d="M279.773 174.518C278.762 176.916 278.329 179.581 278.501 182.333L291.312 365.819H341.602L345.649 327.563L336.259 289.296L340.306 251.04L330.973 212.784L335.018 174.518H279.773Z" fill="black"/>
<path d="M324.846 202.005L328.891 163.738H201.714L197.679 202.005L207.056 240.261L203.02 278.517L212.399 316.783L208.363 355.039H335.529L339.576 316.783L330.187 278.517L334.234 240.261L324.846 202.005Z" fill="#407BFF"/>
<path opacity="0.7" d="M324.846 202.005L328.891 163.738H201.714L197.679 202.005L207.056 240.261L203.02 278.517L212.399 316.783L208.363 355.039H335.529L339.576 316.783L330.187 278.517L334.234 240.261L324.846 202.005Z" fill="white"/>
<path opacity="0.5" d="M324.846 202.005H197.679L201.714 163.738H328.891L324.846 202.005Z" fill="white"/>
<path opacity="0.5" d="M330.187 278.517H203.02L207.056 240.261H334.234L330.187 278.517Z" fill="white"/>
<path opacity="0.5" d="M335.529 355.039H208.352L212.399 316.783H339.576L335.529 355.039Z" fill="white"/>
<path opacity="0.2" d="M310.363 217.991C309.117 218.363 307.793 218.545 306.432 218.53C304.603 218.61 302.712 218.24 300.925 217.452C300.596 217.276 300.239 217.183 299.889 217.182V217.182C299.569 217.187 299.267 217.268 299.01 217.419H298.944C298.5 217.69 298.012 217.896 297.492 218.034C296.321 218.352 295.087 218.508 293.822 218.497C293.44 218.497 293.069 218.497 292.731 218.497C291.741 218.435 290.744 218.265 289.758 217.991C289.613 217.95 289.466 217.925 289.321 217.915C289.078 217.896 288.841 217.926 288.625 218.003C288.41 218.08 288.22 218.203 288.068 218.364C287.916 218.525 287.806 218.721 287.743 218.938C287.68 219.156 287.667 219.391 287.704 219.629V219.629L287.888 220.793H238.384C237.474 220.793 236.602 220.97 235.816 221.314C235.03 221.659 234.347 222.163 233.805 222.799C233.263 223.434 232.873 224.189 232.658 225.019C232.442 225.85 232.405 226.74 232.549 227.638L233.64 234.526C233.779 235.425 234.097 236.316 234.575 237.148C235.054 237.98 235.683 238.736 236.426 239.372C237.17 240.009 238.014 240.515 238.909 240.859C239.805 241.204 240.734 241.382 241.645 241.382H297.883H298.254C298.933 241.878 299.644 242.373 300.401 242.88C301.158 243.387 302.23 244.087 303.213 244.713C303.548 244.928 303.93 245.044 304.302 245.044C304.674 245.044 305.019 244.928 305.286 244.713C311.556 239.646 315.543 236.154 314.023 226.56L312.931 219.661C312.89 219.385 312.784 219.113 312.62 218.866C312.456 218.619 312.24 218.405 311.989 218.242C311.738 218.078 311.46 217.97 311.177 217.927C310.894 217.883 310.615 217.905 310.363 217.991V217.991Z" fill="black"/>
<path d="M292.942 217.01H236.715C232.888 217.01 230.27 220.074 230.869 223.855L231.96 230.743C232.559 234.523 236.147 237.588 239.974 237.588H296.202C300.029 237.588 302.646 234.523 302.048 230.743L300.957 223.855C300.358 220.074 296.77 217.01 292.942 217.01Z" fill="#407BFF"/>
<path d="M304.751 214.735C302.922 214.813 301.031 214.443 299.243 213.657C298.92 213.478 298.565 213.383 298.218 213.383C297.871 213.383 297.546 213.478 297.279 213.657C295.738 214.444 293.96 214.814 292.102 214.735C290.746 214.75 289.364 214.568 288 214.196C287.724 214.109 287.44 214.085 287.172 214.126C286.904 214.167 286.66 214.272 286.46 214.432C286.261 214.592 286.111 214.803 286.023 215.047C285.936 215.291 285.913 215.561 285.957 215.835L287.05 222.734C288.571 232.338 293.664 235.83 301.539 240.897C301.874 241.112 302.256 241.229 302.628 241.229C303 241.229 303.345 241.112 303.612 240.897C309.882 235.83 313.869 232.338 312.348 222.734L311.255 215.835C311.21 215.56 311.1 215.29 310.934 215.046C310.768 214.802 310.551 214.592 310.3 214.432C310.049 214.272 309.771 214.167 309.49 214.126C309.209 214.085 308.932 214.109 308.682 214.196C307.436 214.569 306.112 214.75 304.751 214.735V214.735Z" fill="#407BFF"/>
<path opacity="0.3" d="M304.751 214.735C302.922 214.813 301.031 214.443 299.243 213.657C298.92 213.478 298.565 213.383 298.218 213.383C297.871 213.383 297.546 213.478 297.279 213.657C295.738 214.444 293.96 214.814 292.102 214.735C290.746 214.75 289.364 214.568 288 214.196C287.724 214.109 287.44 214.085 287.172 214.126C286.904 214.167 286.66 214.272 286.46 214.432C286.261 214.592 286.111 214.803 286.023 215.047C285.936 215.291 285.913 215.561 285.957 215.835L287.05 222.734C288.571 232.338 293.664 235.83 301.539 240.897C301.874 241.112 302.256 241.229 302.628 241.229C303 241.229 303.345 241.112 303.612 240.897C309.882 235.83 313.869 232.338 312.348 222.734L311.255 215.835C311.21 215.56 311.1 215.29 310.934 215.046C310.768 214.802 310.551 214.592 310.3 214.432C310.049 214.272 309.771 214.167 309.49 214.126C309.209 214.085 308.932 214.109 308.682 214.196C307.436 214.569 306.112 214.75 304.751 214.735V214.735Z" fill="white"/>
<path opacity="0.2" d="M297.276 213.636C295.734 214.423 293.956 214.793 292.099 214.714C290.743 214.727 289.361 214.546 287.997 214.175C287.72 214.087 287.436 214.063 287.168 214.104C286.901 214.145 286.657 214.25 286.457 214.41C286.257 214.57 286.107 214.781 286.02 215.025C285.932 215.269 285.91 215.539 285.954 215.813L287.046 222.712C288.568 232.316 293.661 235.809 301.535 240.875C301.888 241.102 302.29 241.22 302.68 241.209L298.268 213.356C297.901 213.348 297.557 213.446 297.276 213.636V213.636Z" fill="white"/>
<path d="M309.54 220.858C305.547 222.504 302.176 225.141 299.713 228.544C297.379 227.02 294.772 226.051 292.141 225.73H291.803L292.064 227.379L292.26 227.444C295.291 228.467 298.063 230.352 300.185 232.834L300.52 233.222L300.682 232.801C302.462 228.196 305.684 224.418 309.951 221.936L310.103 221.86L309.932 220.782L309.54 220.858Z" fill="#263238"/>
<path d="M328.348 174.507H323.525C322.906 174.518 322.271 174.399 321.662 174.157C321.054 173.914 320.486 173.555 319.996 173.102C319.506 172.649 319.105 172.113 318.821 171.53C318.536 170.947 318.375 170.33 318.346 169.721L318.017 164.956C317.943 163.661 318.36 162.457 319.19 161.575C320.02 160.693 321.205 160.193 322.52 160.17H327.344C327.963 160.157 328.599 160.276 329.209 160.517C329.819 160.759 330.388 161.118 330.879 161.572C331.371 162.025 331.772 162.561 332.057 163.145C332.342 163.729 332.505 164.346 332.533 164.956L332.862 169.721C332.919 171.012 332.494 172.208 331.665 173.087C330.836 173.967 329.658 174.471 328.348 174.507V174.507Z" fill="#407BFF"/>
<path d="M328.842 164.946L327.613 163.803L325.351 166.196L322.768 163.803L321.694 164.946L324.288 167.339L322.037 169.732L323.264 170.863L325.515 168.47L328.11 170.863L329.175 169.732L326.58 167.339L328.842 164.946Z" fill="white"/>
<path d="M227.053 215.608C230.323 218.616 233.479 221.731 236.628 224.868C239.777 228.005 242.849 231.206 245.911 234.418C246.043 234.558 245.991 234.505 246.019 234.548C246.048 234.591 246.028 234.602 246.03 234.612C246.055 234.652 246.087 234.689 246.123 234.72C246.237 234.851 246.373 234.962 246.523 235.047C246.673 235.132 246.835 235.189 246.998 235.216C247.124 235.232 247.249 235.232 247.369 235.216C247.435 235.221 247.501 235.221 247.566 235.216H247.664C247.719 235.216 247.664 235.216 247.828 235.151L250.325 233.685C253.688 231.767 257.09 229.891 260.644 228.209L264.461 232.122C261.826 234.914 259.172 238.417 256.337 240.983L254.193 242.88C254.06 243.003 253.918 243.114 253.766 243.214C253.601 243.344 253.426 243.463 253.243 243.57C252.884 243.795 252.508 243.996 252.117 244.174C251.327 244.525 250.478 244.767 249.59 244.896C247.796 245.162 245.892 244.977 244.048 244.357C243.11 244.045 242.199 243.621 241.338 243.096C240.904 242.837 240.485 242.535 240.112 242.244C239.902 242.093 239.722 241.921 239.522 241.759L239.017 241.328C235.661 238.396 232.344 235.442 229.074 232.435C225.804 229.427 222.563 226.399 219.423 223.251L227.053 215.608Z" fill="#B55B52"/>
<path d="M259.579 230.581L260.843 222.507L268.066 225.806C268.066 225.806 268.016 231.691 263.311 232.715L259.579 230.581Z" fill="#B55B52"/>
<path d="M263.163 220.276L269.469 221.914L268.055 225.806L260.832 222.507L263.163 220.276Z" fill="#B55B52"/>
<path d="M192.172 217.807C191.994 221.235 191.637 224.631 191.246 228.015C190.854 231.4 190.37 234.752 189.842 238.105L189.649 239.366L189.552 239.991C189.54 240.081 189.517 240.168 189.484 240.25C189.414 240.597 189.402 240.96 189.447 241.328C189.548 242.111 189.891 242.882 190.43 243.538C190.69 243.825 190.97 244.095 191.267 244.346L192.329 245.327L194.431 247.3C195.81 248.636 197.201 249.973 198.536 251.374L195.41 255.686C193.698 254.802 192.04 253.843 190.384 252.894L187.915 251.428L186.705 250.684C186.293 250.426 185.96 250.253 185.283 249.768C182.863 247.971 181.003 245.526 179.991 242.815C179.48 241.434 179.185 240.015 179.118 238.611C179.063 238.267 179.111 237.878 179.111 237.534L179.129 236.887L179.153 235.593C179.216 232.133 179.325 228.684 179.513 225.256C179.701 221.828 179.946 218.411 180.339 215.037L192.172 217.807Z" fill="#B55B52"/>
<path d="M194.749 251.029L198.885 248.755L202.066 256.3C202.066 256.3 198.671 257.669 195.599 255.912L194.749 251.029Z" fill="#B55B52"/>
<path d="M204.722 246.33L206.029 253.271L201.511 256.516L198.558 248.895L204.722 246.33Z" fill="#B55B52"/>
<path d="M209.283 182.171C209.475 182.699 209.917 183.076 210.256 183.012C210.595 182.947 210.724 182.451 210.533 181.934C210.342 181.416 209.898 181.028 209.559 181.093C209.22 181.158 209.093 181.664 209.283 182.171Z" fill="#263238"/>
<path d="M209.864 183.087C211.085 184.591 212.487 185.954 214.031 187.14C213.769 187.476 213.424 187.74 213.022 187.913C212.619 188.087 212.169 188.165 211.702 188.143L209.864 183.087Z" fill="#A02724"/>
<path d="M206.29 179.606C206.227 179.605 206.162 179.586 206.104 179.552C206.047 179.518 205.998 179.469 205.963 179.412C205.929 179.356 205.911 179.293 205.911 179.231C205.911 179.17 205.93 179.113 205.964 179.067C206.245 178.685 206.627 178.388 207.077 178.201C207.527 178.013 208.033 177.941 208.555 177.989C208.598 177.996 208.641 178.012 208.681 178.036C208.72 178.059 208.756 178.089 208.786 178.124C208.816 178.159 208.839 178.198 208.855 178.24C208.87 178.281 208.878 178.324 208.876 178.366C208.876 178.407 208.868 178.447 208.851 178.482C208.834 178.518 208.81 178.549 208.779 178.573C208.748 178.597 208.712 178.614 208.672 178.623C208.632 178.632 208.589 178.632 208.546 178.625C208.133 178.586 207.732 178.644 207.376 178.794C207.02 178.944 206.72 179.182 206.5 179.487C206.452 179.554 206.377 179.597 206.29 179.606V179.606Z" fill="#263238"/>
<path d="M194.735 189.684C196.719 194.632 199.366 203.697 195.587 206.985C195.587 206.985 198.063 212.008 209.479 212.008C222.03 212.008 214.969 208.775 214.969 208.775C207.907 207.459 207.152 201.585 207.764 197.736L194.735 189.684Z" fill="#B55B52"/>
<path d="M194.39 207.901C193.431 206.532 192.352 204.959 193.976 204.463C195.768 203.924 207.647 202.921 211.354 203.935C210.565 205.843 212.79 208.246 212.79 208.246L194.39 207.901Z" fill="#263238"/>
<path d="M241 439.204H248.869L247.175 423.552H239.296L241 439.204Z" fill="#B55B52"/>
<path d="M190.684 437.048L198.729 437.469L201.132 422.043L193.087 421.623L190.684 437.048Z" fill="#B55B52"/>
<path d="M198.39 436.843L190.616 435.237C190.48 435.208 190.344 435.224 190.232 435.282C190.12 435.341 190.039 435.439 190.001 435.561L188.279 441.155C188.236 441.291 188.228 441.439 188.255 441.589C188.281 441.739 188.343 441.886 188.433 442.02C188.524 442.153 188.642 442.269 188.778 442.358C188.914 442.447 189.064 442.508 189.218 442.535C191.93 443.052 193.258 443.171 196.678 443.882C198.776 444.313 203.547 445.424 206.449 446.038C209.351 446.652 209.899 443.979 208.729 443.483C203.468 441.274 201.107 439.323 199.487 437.501C199.196 437.17 198.806 436.936 198.39 436.843V436.843Z" fill="#263238"/>
<path d="M248.329 438.417H240.853C240.718 438.419 240.595 438.465 240.503 438.549C240.412 438.634 240.357 438.75 240.348 438.88L239.946 444.885C239.934 445.03 239.957 445.181 240.013 445.327C240.07 445.473 240.158 445.609 240.271 445.726C240.384 445.842 240.52 445.936 240.667 445.999C240.814 446.062 240.968 446.094 241.119 446.092C243.815 446.092 247.635 445.887 251.073 445.887C255.035 445.887 258.485 446.103 263.112 446.103C265.917 446.103 266.259 443.3 265.039 443.041C259.498 441.888 255.112 441.759 250.039 438.945C249.505 438.627 248.914 438.444 248.329 438.417V438.417Z" fill="#263238"/>
<path d="M181.685 209.27C176.19 212.062 177.255 228.986 177.255 228.986L193.018 235.69C194.847 231.551 195.455 226.845 194.784 222.033C193.694 213.291 187.318 206.457 181.685 209.27Z" fill="#263238"/>
<path opacity="0.4" d="M191.283 219.705C189.276 223.779 190.524 230.074 192.282 235.389L192.985 235.69C194.812 231.55 195.42 226.844 194.751 222.033C194.669 221.516 194.58 220.955 194.507 220.491L191.283 219.705Z" fill="black"/>
<path d="M222.645 208.861C222.645 208.861 231.222 216.988 232.302 267.285H195.708C194.578 261.733 193.816 234.666 184.217 208.516C188.14 207.747 192.149 207.236 196.22 206.985C201.357 206.694 206.553 206.694 211.783 206.985C215.404 207.342 219.036 207.969 222.645 208.861V208.861Z" fill="#407BFF"/>
<path opacity="0.6" d="M222.645 208.861C222.645 208.861 231.222 216.988 232.302 267.285H195.708C194.578 261.733 193.816 234.666 184.217 208.516C188.14 207.747 192.149 207.236 196.22 206.985C201.357 206.694 206.553 206.694 211.783 206.985C215.404 207.342 219.036 207.969 222.645 208.861V208.861Z" fill="#FAFAFA"/>
<path opacity="0.2" d="M228.277 224.232L228.127 224.113L220.24 220.276C221.251 231.346 227.36 238.288 230.819 241.317C230.292 235.629 229.443 229.926 228.277 224.232V224.232Z" fill="black"/>
<path opacity="0.2" d="M247.175 423.552L248.05 431.626H240.17L239.296 423.552H247.175Z" fill="black"/>
<path opacity="0.2" d="M193.089 421.634L201.132 422.043L199.892 429.999L191.848 429.578L193.089 421.634Z" fill="black"/>
<path d="M191.407 184.661C194.189 191.129 195.504 195.02 200.023 197.715C206.755 201.768 213.592 197.111 212.744 190.245C211.973 184.068 207.556 174.507 200.31 173.203C198.708 172.899 197.116 172.994 195.686 173.478C194.256 173.963 193.037 174.821 192.144 175.97C191.251 177.12 190.714 178.522 190.585 180.044C190.456 181.565 190.739 183.155 191.407 184.661V184.661Z" fill="#B55B52"/>
<path d="M219.325 267.285C219.325 267.285 219.734 318.928 218.566 338.288C217.237 359.523 203.298 429.589 203.298 429.589L190.627 426.97C190.627 426.97 197.283 369.839 196.531 340.218C196.227 328.651 195.123 310.035 194.995 294.481C194.864 279.39 195.732 267.295 195.732 267.295L219.325 267.285Z" fill="#263238"/>
<path d="M205.593 425.547L203.995 429.923L189.754 426.969L190.264 422.884L205.593 425.547Z" fill="#407BFF"/>
<path opacity="0.6" d="M205.593 425.547L203.995 429.923L189.754 426.969L190.264 422.884L205.593 425.547Z" fill="white"/>
<path opacity="0.6" d="M217.329 285.685C208.621 287.42 214.811 320.502 218.585 337.512C219.277 325.482 219.401 302.35 219.385 285.922C218.711 285.618 217.985 285.534 217.329 285.685V285.685Z" fill="black"/>
<path d="M232.302 267.285C232.302 267.285 243.962 317.818 246.484 338.428C249.105 359.868 249.929 430.053 249.929 430.053H238.339C238.339 430.053 226.987 361.065 223.146 340.056C218.942 317.096 208.246 267.274 208.246 267.274L232.302 267.285Z" fill="#263238"/>
<path d="M251.435 425.503C251.49 425.503 251.533 430.257 251.533 430.257H237.433L236.378 426.01L251.435 425.503Z" fill="#407BFF"/>
<path opacity="0.6" d="M251.435 425.503C251.49 425.503 251.533 430.257 251.533 430.257H237.433L236.378 426.01L251.435 425.503Z" fill="white"/>
<path d="M219.875 218.314C222.022 231.875 230.208 237.458 230.208 237.458L240.302 226.011C236.747 221.359 232.839 216.949 228.621 212.827C220.5 205.034 218.495 209.604 219.875 218.314Z" fill="#263238"/>
<path opacity="0.2" d="M212.675 192.702C212.54 193.382 212.229 193.993 211.77 194.481C211.311 194.97 210.718 195.321 210.041 195.505C209.29 195.661 208.649 196.06 208.212 196.643C207.776 197.225 207.567 197.96 207.618 198.739V198.739C208.957 198.272 210.113 197.482 210.992 196.433C211.871 195.384 212.448 194.106 212.675 192.702V192.702Z" fill="black"/>
<path d="M206.283 171.78C208.245 168.729 204.451 168.546 204.451 168.546C204.858 164.913 200.757 166.864 200.757 166.864C197.546 163.264 196.746 167.651 196.746 167.651C193.523 164.601 193.777 169.581 193.777 169.581C190.414 165.711 189.902 171.295 189.902 171.295C186.733 167.274 186.011 172.502 186.011 172.502C180.491 170.659 183.819 176.027 183.819 176.027C179.385 176.145 183.506 179.562 183.506 179.562C178.158 179.562 183.353 182.591 183.353 182.591C179.543 185.34 184.997 186.084 184.997 186.084C182.391 191.474 188.018 189.447 188.018 189.447C186.446 194.75 191.413 192.411 191.413 192.411C191.883 197.521 194.643 196.13 195.933 195.182C196.377 196.26 197.071 197.338 198.045 197.424C199.951 197.672 199.716 194.19 199.716 194.19C199.716 194.19 201.652 195.527 202.989 194.804C204.326 194.082 203.492 192.26 203.492 192.26C203.844 192.493 204.247 192.619 204.64 192.619C205.034 192.619 205.396 192.493 205.675 192.26C206.222 191.786 205.679 188.358 204.702 187.151L207.369 186.073C207.369 186.073 209.429 185.782 208.055 183.033C207.238 181.454 206.917 179.738 207.136 178.129C210.109 176.641 207.192 174.895 207.192 174.895C210.539 172.534 206.283 171.78 206.283 171.78Z" fill="#263238"/>
<path d="M202.61 184.898C203.309 186.506 204.504 187.924 206.009 188.93C207.997 190.245 209.12 188.93 208.676 186.957C208.284 185.168 206.765 182.333 204.715 181.794C202.666 181.255 201.838 182.99 202.61 184.898Z" fill="#B55B52"/>
</g>
<defs>
<clipPath id="clip0_102_278">
<rect width="545.685" height="545.685" fill="white" transform="matrix(1 0 0.156434 0.987688 0.509644 0.571777)"/>
</clipPath>
</defs>
</svg>
