<?xml version="1.0" encoding="UTF-8"?>
<!DOCTYPE svg PUBLIC "-//W3C//DTD SVG 1.1//EN" "http://www.w3.org/Graphics/SVG/1.1/DTD/svg11.dtd">
<!-- Creator: CorelDRAW -->
<svg xmlns="http://www.w3.org/2000/svg" xml:space="preserve" width="7.83333in" height="7.83333in" style="shape-rendering:geometricPrecision; text-rendering:geometricPrecision; image-rendering:optimizeQuality; fill-rule:evenodd; clip-rule:evenodd"
viewBox="0 0 7.83333 7.83333"
 xmlns:xlink="http://www.w3.org/1999/xlink">
 <defs>
  <style type="text/css">
   <![CDATA[
    .fil0 {fill:#97999C}
    .fil8 {fill:#97AD98}
    .fil9 {fill:#ADB277}
    .fil10 {fill:#AFAA87}
    .fil7 {fill:#C09A62}
    .fil2 {fill:#C8E6C9}
    .fil4 {fill:#E6EE9C}
    .fil5 {fill:#FFCC80}
    .fil3 {fill:#FFF9C4}
    .fil6 {fill:#35312A;fill-rule:nonzero}
    .fil1 {fill:#413B32;fill-rule:nonzero}
   ]]>
  </style>
 </defs>
 <g id="Layer_x0020_1">
  <metadata id="CorelCorpID_0Corel-Layer"/>
  <circle class="fil0" cx="3.91667" cy="3.91667" r="3.91667"/>
  <g id="_319086936">
   <path id="_348349408" class="fil1" d="M1.44177 3.89294c-0.0450157,-0.00194094 -0.0830866,0.0329803 -0.0850276,0.0779921 -0.00194094,0.0450118 0.0329803,0.0830827 0.0779961,0.0850236 0.0081063,0.000370079 2.80328,0.156575 5.01602,-2.42573 0.0292992,-0.034248 0.0252953,-0.0857717 -0.00895276,-0.115071 -0.0342441,-0.0292992 -0.0857677,-0.0252913 -0.115067,0.00895276 -2.16033,2.52113 -4.8771,2.36919 -4.88497,2.36883z"/>
   <path id="_348349288" class="fil1" d="M4.95553 1.48769c-0.0450157,0 -0.0815079,0.0364961 -0.0815079,0.0815079 0,0.0450157 0.0364921,0.0815118 0.0815079,0.0815118l1.3578 3.93701e-006 3.93701e-006 1.3578c0,0.0450118 0.0364961,0.0815079 0.0815079,0.0815079 0.0450118,0 0.0815079,-0.0364961 0.0815079,-0.0815079 0,-0.479768 0.000314961,-0.959555 0.000314961,-1.43931 0,-0.045189 -0.0366378,-0.0818268 -0.0818268,-0.0818268l-1.43931 0.000314961z"/>
   <path id="_348348832" class="fil1" d="M1.96955 4.28007l0.493465 0c0.0441811,0 0.08,0.0358189 0.08,0.08l0 1.90589c0,0.0441811 -0.0358189,0.08 -0.08,0.08l-0.493465 0c-0.0441811,0 -0.08,-0.0358189 -0.08,-0.08l0 -1.90589c0,-0.0441811 0.0358189,-0.08 0.08,-0.08zm0.413465 0.16l-0.333465 0 0 1.74589 0.333465 0 0 -1.74589z"/>
   <path id="_348349024" class="fil1" d="M4.23253 3.69174l0.493465 0c0.0441811,0 0.08,0.0385157 0.08,0.0860236l0 2.48217c0,0.0475079 -0.0358189,0.0860236 -0.08,0.0860236l-0.493465 0c-0.0441811,0 -0.08,-0.0385157 -0.08,-0.0860236l0 -2.48217c0,-0.0475079 0.0358189,-0.0860236 0.08,-0.0860236zm0.413465 0.172051l-0.333465 0 0 2.31011 0.333465 0 0 -2.31011z"/>
   <path id="_319085448" class="fil1" d="M5.36402 3.28564l0.493465 0c0.0441811,0 0.08,0.0358189 0.08,0.08l0 2.90032c0,0.0441811 -0.0358189,0.08 -0.08,0.08l-0.493465 0c-0.0441811,0 -0.08,-0.0358189 -0.08,-0.08l0 -2.90032c0,-0.0441811 0.0358189,-0.08 0.08,-0.08zm0.413465 0.16l-0.333465 0 0 2.74032 0.333465 0 0 -2.74032z"/>
   <polygon id="_319108104" class="fil2" points="2.04955,4.44007 2.04955,6.18596 2.38302,6.18596 2.38302,4.44007 "/>
   <polygon id="_319092384" class="fil3" points="4.31253,3.8638 4.31253,6.17391 4.64599,6.17391 4.64599,3.8638 "/>
   <polygon id="_319087728" class="fil4" points="5.44402,3.44564 5.44402,6.18596 5.77748,6.18596 5.77748,3.44564 "/>
   <path id="_319087656" class="fil1" d="M3.10104 4.03289l0.493465 0c0.0441811,0 0.08,0.0386929 0.08,0.0864213l0 2.14022c0,0.0477283 -0.0358189,0.0864213 -0.08,0.0864213l-0.493465 0c-0.0441811,0 -0.08,-0.0386929 -0.08,-0.0864213l0 -2.14022c0,-0.0477283 0.0358189,-0.0864213 0.08,-0.0864213zm0.413465 0.172846l-0.333465 0 0 1.96737 0.333465 0 0 -1.96737z"/>
   <polygon id="_319087560" class="fil5" points="3.18104,4.20574 3.18104,6.17311 3.5145,6.17311 3.5145,4.20574 "/>
   <path id="_319087272" class="fil6" d="M3.51452 6.17311l-1.9685e-005 0c0,-2.3386 1.9685e-005,-2.2903 1.9685e-005,0z"/>
   <polygon id="_319087248" class="fil7" points="3.34771,6.17311 3.5145,6.17311 3.5145,4.20574 3.34771,4.20574 "/>
   <polygon id="_319087128" class="fil8" points="2.21635,6.18596 2.38302,6.18596 2.38302,4.44007 2.21635,4.44007 "/>
   <polygon id="_319086360" class="fil9" points="5.61065,3.44564 5.61065,6.18596 5.77748,6.18596 5.77748,3.44564 "/>
   <polygon id="_319086984" class="fil10" points="4.47664,6.17391 4.64599,6.17391 4.64599,3.8638 4.47664,3.8638 "/>
  </g>
 </g>
</svg>
